<svg width="31" height="32" viewBox="0 0 31 32" fill="none" xmlns="http://www.w3.org/2000/svg">
<g clip-path="url(#clip0_896_1636)">
<path d="M14.624 31.877C12.7248 31.4687 11.6571 30.1048 10.8129 28.5346C10.3632 27.698 10.0442 26.7915 9.66986 25.9158C9.60956 25.7744 9.56853 25.6247 9.51075 25.4559C8.93795 25.5532 8.37688 25.6646 7.81078 25.7411C6.28667 25.9466 4.76256 26.0073 3.2753 25.5207C1.86675 25.06 0.903717 24.176 0.706086 22.6507C0.588847 21.7426 0.816626 20.8793 1.16416 20.046C1.7135 18.7278 2.54088 17.5851 3.46958 16.509C3.62618 16.3277 3.78696 16.1514 3.96952 15.946C3.80622 15.7588 3.64376 15.5742 3.48382 15.3888C2.46551 14.2087 1.56277 12.9554 1.02682 11.4784C0.721159 10.6367 0.559537 9.77181 0.763868 8.88361C1.04608 7.65276 1.86927 6.89596 3.0224 6.45602C3.21417 6.38284 3.31549 6.29219 3.36825 6.08261C3.58179 5.24098 4.27937 4.68877 5.15615 4.63305C5.945 4.58232 6.69617 5.06717 7.04119 5.83312C7.08473 5.92959 7.18606 6.05267 7.27734 6.06847C8.00757 6.19322 8.74199 6.29551 9.51242 6.41028C9.57941 6.21734 9.65227 6.00527 9.7268 5.79486C10.2527 4.31037 10.9025 2.88991 11.9376 1.67404C12.528 0.981276 13.2189 0.412428 14.1082 0.147132C15.4079 -0.240417 16.5191 0.173744 17.4964 1.02369C18.5415 1.93268 19.2215 3.09782 19.7717 4.34031C20.0313 4.92745 20.254 5.53206 20.46 6.14C20.5471 6.39697 20.6518 6.4344 20.9081 6.38034C22.325 6.08178 23.7545 5.90547 25.2082 6.04186C25.9946 6.11588 26.76 6.27306 27.4693 6.63067C28.7564 7.28019 29.418 8.31476 29.3895 9.75684C29.3861 9.94146 29.4372 10.0521 29.5871 10.1685C30.252 10.6816 30.4915 11.5416 30.2085 12.32C29.9196 13.1134 29.1776 13.624 28.3167 13.5799C28.058 13.5666 27.9332 13.6573 27.7892 13.8494C27.2607 14.5571 26.7081 15.2466 26.1394 15.9751C26.2818 16.1356 26.4535 16.326 26.621 16.5215C27.6234 17.6874 28.5085 18.9274 29.0461 20.3803C29.3309 21.1504 29.4816 21.9447 29.3585 22.7613C29.1701 24.008 28.4197 24.8321 27.2859 25.3403C26.4619 25.7087 25.5851 25.8351 24.6924 25.8792C24.3951 25.8942 24.1899 25.7154 24.1681 25.4559C24.1447 25.1789 24.3189 24.9993 24.6405 24.9494C25.2585 24.8529 25.8941 24.8105 26.4895 24.635C27.9265 24.2126 28.6065 23.2204 28.4189 21.8141C28.3444 21.2585 28.1593 20.7022 27.9366 20.1841C27.3604 18.8418 26.4493 17.7174 25.462 16.6312C25.0005 17.0496 24.5617 17.477 24.0903 17.8671C23.3759 18.4584 22.6357 19.0197 21.9172 19.6052C21.8083 19.6942 21.7019 19.8389 21.6793 19.972C21.4222 21.4823 21.1819 22.995 20.9282 24.5594C21.2698 24.6226 21.6969 24.7032 22.1232 24.7814C22.2463 24.8039 22.3727 24.8147 22.4941 24.8421C22.7646 24.9037 22.9137 25.1116 22.8768 25.3611C22.8383 25.6197 22.6114 25.796 22.3308 25.7536C21.8351 25.6788 21.3402 25.5964 20.8494 25.4933C20.6501 25.4517 20.5522 25.4708 20.4818 25.6837C20.3177 26.1861 20.115 26.6751 19.9475 27.1766C19.9157 27.2714 19.9383 27.4211 19.9969 27.5009C20.5279 28.2294 20.5823 29.0661 20.1276 29.7688C19.6796 30.4607 18.8941 30.766 18.0223 30.598C17.9327 30.5805 17.7962 30.5896 17.7409 30.6454C17.112 31.2699 16.3609 31.6691 15.5017 31.8804H14.6224L14.624 31.877ZM20.9818 15.9277C20.9315 14.9214 20.888 13.9167 20.8235 12.9129C20.8151 12.7799 20.733 12.6044 20.6267 12.5312C18.9192 11.3445 17.1187 10.314 15.2287 9.44081C15.1248 9.39341 14.9607 9.39008 14.8585 9.43748C12.9793 10.3099 11.1848 11.3287 9.48646 12.5113C9.37759 12.5869 9.27962 12.7483 9.26873 12.8788C9.08701 14.9089 9.09622 16.9398 9.25114 18.9715C9.26706 19.1836 9.36085 19.3033 9.52749 19.4164C11.2141 20.56 12.9743 21.5746 14.8275 22.4287C14.9456 22.4827 15.1332 22.4844 15.2513 22.4303C17.1238 21.5687 18.9058 20.5475 20.5965 19.3732C20.7113 19.2934 20.8118 19.1154 20.821 18.9765C20.8888 17.9627 20.9307 16.9464 20.9809 15.9302L20.9818 15.9277ZM9.22267 24.5519C9.21681 24.4695 9.21765 24.4296 9.21011 24.3905C8.9413 22.9044 8.675 21.4182 8.39614 19.9337C8.37436 19.819 8.28392 19.695 8.18929 19.6185C7.53192 19.0896 6.8536 18.5865 6.20544 18.0484C5.66363 17.5985 5.1528 17.1111 4.60931 16.6238C4.27853 17.0163 3.9444 17.3872 3.6379 17.7798C2.78959 18.8676 2.04261 20.0119 1.72523 21.3775C1.35593 22.9634 1.97729 24.077 3.52569 24.6142C3.63371 24.6517 3.74342 24.6874 3.85396 24.7165C5.14359 25.0484 6.4441 24.9885 7.74462 24.8064C8.23703 24.7373 8.72524 24.6384 9.22267 24.5519ZM19.672 6.62817C19.4066 5.95786 19.1729 5.29171 18.8823 4.65134C18.3648 3.51032 17.7451 2.42918 16.7461 1.62081C15.6063 0.698515 14.4331 0.710158 13.3043 1.64826C12.2751 2.50403 11.6453 3.63756 11.1186 4.83181C10.8582 5.42228 10.6488 6.03521 10.4185 6.63233C10.5014 6.67558 10.5282 6.69304 10.5575 6.70385C11.9912 7.21532 13.4232 7.72928 14.8602 8.22993C14.9808 8.27151 15.1466 8.25904 15.268 8.21246C15.8726 7.9821 16.4614 7.71264 17.0702 7.49475C17.9126 7.19369 18.7684 6.92757 19.6712 6.62817H19.672ZM3.42268 7.3226C2.17576 7.68021 1.47316 8.76967 1.64735 10.0621C1.74951 10.823 2.01916 11.5249 2.37758 12.1986C2.9755 13.3229 3.75682 14.3126 4.61517 15.2399C4.66123 15.2174 4.68217 15.2116 4.69724 15.1983C5.87884 14.2087 7.06296 13.2215 8.23703 12.2235C8.32579 12.1487 8.38274 12.0056 8.402 11.8867C8.52761 11.0991 8.62056 10.3057 8.75958 9.51982C8.8877 8.79878 9.06105 8.08605 9.22518 7.3201C8.53012 7.20617 7.84511 7.09473 7.16764 6.98412C6.57223 8.82788 4.26011 8.99338 3.42185 7.32177L3.42268 7.3226ZM20.929 7.32426C21.1827 8.89109 21.4264 10.413 21.6827 11.9324C21.7028 12.0497 21.7899 12.1778 21.8845 12.2551C22.2069 12.5179 22.5586 12.7474 22.8785 13.0136C23.7494 13.7413 24.6103 14.4814 25.5089 15.2457C26.0473 14.5713 26.6025 13.8768 27.1586 13.1799C26.4912 12.5304 26.2575 11.811 26.5732 10.9852C26.8923 10.151 27.5706 9.77929 28.4306 9.72108C28.4951 8.69482 27.9659 7.87897 26.9517 7.41741C26.2768 7.11053 25.5566 6.99327 24.8213 6.94753C23.484 6.86436 22.1759 7.06146 20.929 7.32343V7.32426ZM17.0291 29.9942C16.6179 29.496 16.4689 28.9372 16.597 28.3242C16.8039 27.3379 17.7242 26.705 18.7383 26.8131C18.8564 26.8256 19.0632 26.7873 19.0942 26.7158C19.3019 26.2343 19.4736 25.7378 19.6586 25.2421C19.5874 25.2072 19.5523 25.1856 19.5138 25.1723C18.0893 24.665 16.6665 24.1543 15.2379 23.6579C15.1081 23.6129 14.9314 23.6246 14.8007 23.6728C13.7824 24.0479 12.7733 24.4471 11.755 24.8197C11.3271 24.976 10.8824 25.0875 10.3691 25.2421C10.7736 26.1678 11.1328 27.0726 11.5591 27.945C11.9853 28.8174 12.5439 29.6091 13.3076 30.2362C14.5353 31.2442 15.8919 31.1635 17.0283 29.9934L17.0291 29.9942ZM8.23116 13.3471C7.21286 14.2245 6.24228 15.0619 5.21896 15.9443C6.26322 16.84 7.23044 17.6691 8.23116 18.5274V13.3471ZM10.1304 24.3764C11.4326 23.929 12.6385 23.5148 13.8804 23.089C12.3496 22.2116 10.8891 21.375 9.37425 20.5067C9.62463 21.79 9.86832 23.0358 10.1304 24.3772V24.3764ZM20.7071 11.3719C20.4575 10.0912 20.2138 8.84119 19.9534 7.50556C18.6562 7.95133 17.4445 8.36715 16.2043 8.79379C17.7351 9.67035 19.1888 10.5028 20.7079 11.3727L20.7071 11.3719ZM16.2017 23.089C17.4579 23.5181 18.6713 23.9331 19.9576 24.3731C20.218 23.0316 20.4592 21.7858 20.7071 20.5101C19.1955 21.3758 17.7418 22.2083 16.2026 23.089H16.2017ZM10.1279 7.50473C9.86665 8.85117 9.6238 10.1003 9.37676 11.3727C10.895 10.5037 12.353 9.66785 13.8796 8.79379C12.6368 8.36715 11.4301 7.95216 10.1279 7.50556V7.50473ZM24.8297 15.9726C23.8558 15.0187 22.8969 14.1779 21.8585 13.4194V18.5282C22.8676 17.6608 23.8332 16.83 24.8297 15.9726ZM28.3695 12.6551C28.9239 12.6601 29.3719 12.2343 29.3828 11.6913C29.3937 11.1382 28.9381 10.6783 28.3812 10.6791C27.8402 10.68 27.383 11.1291 27.3797 11.6638C27.3763 12.2002 27.8252 12.6501 28.3695 12.6551ZM18.4988 29.7114C19.0532 29.7098 19.4995 29.2673 19.497 28.7218C19.4945 28.1837 19.0339 27.7304 18.4913 27.7321C17.9428 27.7338 17.4998 28.1795 17.5006 28.7284C17.5023 29.2823 17.9394 29.7131 18.4988 29.7106V29.7114ZM5.22482 7.54382C5.78421 7.55047 6.22972 7.12384 6.23977 6.57328C6.24898 6.03521 5.80013 5.57364 5.2558 5.56283C4.71399 5.55202 4.25341 5.99945 4.24671 6.54251C4.24001 7.09889 4.66877 7.53717 5.22482 7.54382Z" fill="#344EB6"/>
<path d="M14.3117 14.9247C14.3753 14.5039 14.439 14.1396 14.4783 13.7721C14.4875 13.6856 14.4339 13.5733 14.3736 13.5034C14.0881 13.1708 13.7071 13.0236 13.2766 12.967C12.9718 12.9271 12.7985 12.7275 12.8177 12.4772C12.8387 12.1986 13.0798 12.0214 13.3997 12.0489C14.0387 12.1046 14.5805 12.3674 15.0369 12.8265C15.4757 12.4148 15.9656 12.1412 16.5602 12.0647C17.8138 11.9025 19.0079 12.6851 19.3337 13.891C19.662 15.1077 19.0414 16.3851 17.8732 16.8558C17.6505 16.9456 17.56 17.028 17.5651 17.2891C17.5935 18.722 16.3994 19.8913 14.9866 19.8456C13.5312 19.7982 12.4292 18.5973 12.5121 17.1502C12.5146 17.0995 12.5121 17.0487 12.5121 16.9905C12.3312 16.909 12.1469 16.8392 11.9744 16.746C10.7359 16.0815 10.2745 14.4681 10.9871 13.3105C11.1554 13.0377 11.405 12.9512 11.647 13.0834C11.8873 13.214 11.9493 13.461 11.8153 13.7554C11.7852 13.8211 11.7508 13.886 11.7232 13.9525C11.4058 14.7218 11.7366 15.585 12.4836 15.9618C12.7047 16.0732 12.8504 16.0998 13.0187 15.8445C13.3311 15.3713 13.8059 15.0844 14.3117 14.9264V14.9247ZM15.0469 15.7555C14.1727 15.7522 13.4441 16.4708 13.4458 17.334C13.4475 18.1981 14.181 18.92 15.0503 18.9125C15.9128 18.905 16.6255 18.1998 16.6322 17.3465C16.6389 16.4766 15.9229 15.7589 15.0469 15.7555ZM18.4762 14.5513C18.4762 13.6739 17.7585 12.962 16.8809 12.9695C15.9874 12.977 15.2722 13.7213 15.304 14.6012C15.3099 14.7559 15.3417 14.8474 15.5184 14.8773C16.2017 14.9962 16.736 15.3572 17.1246 15.9202C17.2217 16.0608 17.3046 16.0799 17.4587 16.0217C18.0633 15.7938 18.4762 15.2066 18.4753 14.5513H18.4762Z" fill="#344EB6"/>
</g>
<defs>
<clipPath id="clip0_896_1636">
<rect width="29.6531" height="31.8771" fill="white" transform="translate(0.673462)"/>
</clipPath>
</defs>
</svg>
