<svg width="29" height="27" viewBox="0 0 29 27" fill="none" xmlns="http://www.w3.org/2000/svg">
<g clip-path="url(#clip0_896_1655)">
<path d="M28.9558 21.7663C28.7913 22.1595 28.4948 22.3447 28.0733 22.4048C27.4507 22.4939 26.8351 22.629 26.2032 22.7916C26.3896 22.8404 26.5739 22.9047 26.7631 22.9344C28.1171 23.1508 27.9152 23.7943 27.7443 24.6498C27.6603 25.0705 27.2692 25.3003 26.8111 25.224C25.791 25.0536 24.7744 24.8662 23.7564 24.6859C23.6674 24.6703 23.5778 24.6604 23.4634 24.6442C23.491 25.1724 23.4048 25.644 23.1006 26.0562C22.7645 26.5116 22.3169 26.7789 21.7564 26.8489C21.6075 26.8672 21.4557 26.8672 21.3053 26.8672C15.7904 26.8701 10.2754 26.868 4.76048 26.8764C3.50741 26.8786 2.38847 26.5349 1.43825 25.6991C-0.333002 24.1407 -0.431836 21.5224 1.22434 19.8452C1.36271 19.7045 1.41001 19.5652 1.4093 19.3729C1.40436 15.4047 1.40648 11.4358 1.40507 7.46766C1.40507 6.58522 1.72981 5.88592 2.54378 5.48288C2.79086 5.36055 3.07466 5.31459 3.35916 5.22762C3.35916 4.96529 3.35916 4.68529 3.35916 4.37629C2.83816 4.22922 2.77251 3.81557 2.78804 3.339C2.80498 2.80232 2.78874 2.26423 2.79298 1.72755C2.79792 1.21633 3.0676 0.937735 3.57377 0.934907C4.66518 0.92925 5.7573 0.92925 6.84871 0.934907C7.35276 0.937028 7.63938 1.21774 7.64714 1.71906C7.65632 2.3314 7.65209 2.94444 7.64856 3.55678C7.64644 3.90113 7.52854 4.17901 7.18968 4.33104C7.13038 4.3579 7.06543 4.44629 7.06049 4.50993C7.04496 4.72559 6.98849 4.97873 7.07814 5.14772C7.14591 5.27499 7.41206 5.30328 7.5942 5.36126C8.45476 5.63561 8.99764 6.36108 9.0167 7.29019C9.02729 7.79787 9.01882 8.30627 9.01882 8.85567C9.54264 8.70718 10.0368 8.739 10.5218 8.93133C10.5712 8.95113 10.6623 8.90658 10.7152 8.86628C11.6457 8.16697 12.5168 8.14717 13.4649 8.80688C13.4875 8.82244 13.5144 8.83234 13.5588 8.85497C13.9401 8.47455 14.3255 8.09131 14.7095 7.70737C14.9962 7.421 15.2743 7.12614 15.5694 6.84897C15.9344 6.50603 16.3678 6.50603 16.6792 6.89775C16.987 7.28382 17.2319 7.72009 17.5002 8.13727C17.5503 8.21435 17.5814 8.30415 17.6273 8.40172C18.1589 8.08919 18.7166 7.87141 19.3202 7.89616C19.7833 7.91525 20.2513 7.99656 20.6989 8.11748C20.8584 8.16061 21.0448 8.38193 21.0829 8.55233C21.2065 9.10527 21.2679 9.67306 21.3575 10.2635C21.9435 10.1807 22.5506 10.3024 23.0808 10.7195C23.6053 11.1325 23.875 11.6833 23.9378 12.3055C24.3558 12.3876 24.7511 12.4583 25.1429 12.5431C25.4048 12.5997 25.5531 12.7758 25.6371 13.0317C25.8919 13.8067 25.8545 14.5696 25.5629 15.3411C25.9265 15.5362 25.9999 15.8565 25.9675 16.2313C25.9202 16.7743 25.8841 17.3188 25.8404 17.9C26.4164 17.8576 26.6176 18.3016 26.845 18.7181C27.1471 19.271 27.061 19.6493 26.5442 20C26.2816 20.1782 26.0169 20.3529 25.774 20.5714C26.4087 20.4568 27.0433 20.3437 27.6773 20.227C28.3931 20.0955 28.72 20.3133 28.8661 21.0182C28.8908 21.137 28.9254 21.2537 28.9558 21.3711C28.9558 21.5026 28.9558 21.6341 28.9558 21.7663ZM6.4456 18.052C6.56491 18.035 6.66657 18.0181 6.76893 18.0061C7.41065 17.9311 8.04813 17.9361 8.66514 18.1531C9.03506 18.2832 9.36615 18.4685 9.52217 18.8715C9.55676 18.9606 9.67324 19.0292 9.76643 19.0822C10.3397 19.4103 10.8338 19.8325 11.1946 20.3833C11.4388 20.7566 11.6203 21.1717 11.837 21.5818C12.142 21.4658 12.4653 21.3414 12.79 21.2205C13.1296 21.0932 13.3682 21.1554 13.4692 21.3937C13.5793 21.656 13.4529 21.8717 13.1014 22.0067C12.4173 22.2698 11.7318 22.5286 11.047 22.7909C10.9538 22.8263 10.8635 22.8694 10.7717 22.9083C10.819 23.1763 10.8656 23.416 10.903 23.6571C10.9489 23.9498 10.8296 24.152 10.5903 24.203C10.3375 24.2567 10.1484 24.1146 10.0771 23.8084C10.0333 23.6196 10.0001 23.428 9.95421 23.2017C9.33156 23.4471 8.72938 23.6592 8.14979 23.9215C7.79187 24.0835 7.61538 24.4144 7.60196 24.8139C7.57655 25.5344 8.0453 26.0209 8.78515 26.0237C10.3383 26.0294 11.8914 26.0244 13.4445 26.023C13.5073 26.023 13.5708 26.0081 13.6478 25.9989C13.5793 25.6327 13.5144 25.282 13.4487 24.9312C13.3852 24.5911 13.5066 24.3606 13.7734 24.3154C14.0304 24.2722 14.2133 24.4313 14.2775 24.7608C14.3587 25.1738 14.4356 25.5881 14.5147 26.0018C15.6506 26.0018 16.7646 26.0018 17.8941 26.0018C17.8694 25.8498 17.8489 25.7204 17.8271 25.591C17.8045 25.4609 17.7741 25.3322 17.7579 25.2014C17.724 24.9178 17.8602 24.7128 18.1017 24.6739C18.3262 24.6371 18.5161 24.7785 18.5789 25.0507C18.6403 25.3166 18.677 25.5881 18.7399 25.8533C18.7547 25.9162 18.8323 26.0103 18.8832 26.0117C19.3209 26.0244 19.7593 26.0187 20.2231 26.0187C20.1398 25.5782 20.0621 25.1816 19.9908 24.7842C19.9329 24.461 20.0614 24.2355 20.317 24.1945C20.5838 24.1513 20.7624 24.3034 20.826 24.6329C20.9022 25.0302 20.9714 25.4297 21.0533 25.8257C21.0674 25.895 21.1211 25.994 21.1768 26.011C21.9428 26.2372 22.7455 25.5556 22.6092 24.77C22.3402 23.2208 22.0543 21.6751 21.7508 20.1323C21.6025 19.3778 20.9523 19.0356 20.2245 19.3021C19.4042 19.6027 18.5902 19.923 17.7741 20.2348C17.5129 20.3345 17.2524 20.4349 16.9841 20.5374C17.0498 20.9023 17.1105 21.2438 17.174 21.5853C17.2397 21.9382 17.1373 22.1588 16.8768 22.2175C16.6107 22.2776 16.4229 22.11 16.3467 21.7395C16.2874 21.4489 16.2316 21.1582 16.1702 20.8492C15.9732 20.9214 15.8073 20.985 15.64 21.043C15.3435 21.1462 15.1084 21.0684 15.0188 20.8415C14.9199 20.5912 15.0343 20.3691 15.3442 20.2503C16.8712 19.6663 18.3968 19.0759 19.9301 18.5102C20.7695 18.2005 21.5291 18.366 22.1355 19.0434C22.3127 19.2406 22.4257 19.4952 22.5789 19.7405C23.2093 19.3679 23.8411 18.9776 24.4899 18.6191C24.7426 18.4791 24.8923 18.3158 24.9255 18.0237C24.9968 17.4029 25.0864 16.7842 25.174 16.1266C24.9876 16.1266 24.8859 16.1266 24.7843 16.1266C23.8242 16.1266 22.8641 16.1295 21.904 16.1238C21.6011 16.1217 21.4359 15.9682 21.4303 15.7158C21.4246 15.4648 21.5877 15.3043 21.8849 15.2817C22.0134 15.2718 22.1426 15.2802 22.2647 15.2802C22.3784 14.675 22.0593 14.1376 21.4776 14.0139C21.0808 13.9297 20.9114 13.7466 20.8704 13.34C20.8267 12.903 20.54 12.6096 20.1151 12.4788C19.7317 12.3607 19.3844 12.4335 19.0399 12.7185C19.5722 12.8818 19.7148 13.2523 19.6378 13.719C19.5524 14.2338 19.4345 14.7429 19.3279 15.2661C19.3477 15.2703 19.4204 15.2852 19.4924 15.3029C19.7317 15.3601 19.8419 15.5171 19.8164 15.7575C19.7924 15.9887 19.6456 16.1047 19.4197 16.121C19.3166 16.1287 19.2128 16.1266 19.1091 16.1266C14.7413 16.1266 10.3743 16.1266 6.0065 16.1266C5.88719 16.1266 5.76788 16.1266 5.60551 16.1266C5.64293 16.5898 5.67682 17.0133 5.7107 17.4411C6.23523 17.3442 6.35595 17.4496 6.4456 18.052ZM2.27269 13.9849C2.38917 13.9849 2.49012 13.9849 2.59108 13.9849C3.56036 13.9849 4.52963 13.9743 5.49821 13.9898C5.88437 13.9962 6.23382 13.975 6.52326 13.6674C6.62209 13.5627 6.67786 13.4977 6.65951 13.3435C6.56632 12.5587 6.81482 11.9011 7.41488 11.375C7.48972 11.3093 7.54125 11.17 7.5356 11.0688C7.50525 10.4968 7.66832 9.99691 8.01071 9.53942C8.11519 9.40013 8.1512 9.20992 8.24085 8.9886C7.926 8.9886 7.71068 8.99073 7.49607 8.9879C7.15297 8.98365 6.97295 8.84082 6.96942 8.57425C6.96589 8.30839 7.15086 8.14929 7.48407 8.14081C7.70644 8.13515 7.92882 8.1401 8.17167 8.1401C8.17167 7.85232 8.17449 7.59989 8.17097 7.34675C8.16249 6.62411 7.72833 6.13693 7.00896 6.12279C5.81518 6.09946 4.62 6.10582 3.42552 6.12067C2.8784 6.12774 2.44847 6.42259 2.33834 6.90129C2.24798 7.29443 2.2621 7.71161 2.22821 8.1394C2.3927 8.1394 2.48659 8.1394 2.57978 8.1394C3.34151 8.1394 4.10394 8.13727 4.86567 8.1401C5.225 8.14152 5.41914 8.29213 5.42267 8.56082C5.4262 8.83517 5.23842 8.98507 4.87908 8.98719C4.52187 8.98931 4.16395 8.9879 3.80673 8.9879C3.30127 8.9879 2.7958 8.9879 2.27269 8.9879C2.27269 10.6623 2.27269 12.3055 2.27269 13.9849ZM7.08873 26.0887C7.03437 25.9424 7.02449 25.9084 7.00966 25.8766C6.41313 24.647 6.86847 23.4831 8.1399 22.991C8.62137 22.8043 9.10495 22.624 9.58782 22.4395C10.0502 22.2627 10.5119 22.0845 10.9842 21.9035C10.7654 21.0904 10.2959 20.4957 9.65489 20.0064C9.32874 19.7575 9.0407 19.6819 8.71667 20.0036C8.73644 20.058 8.76609 20.1259 8.78656 20.1959C8.9214 20.6534 8.71526 21.0359 8.25144 21.1434C8.06366 21.1865 7.84481 21.2219 7.66903 21.1681C7.16215 21.0112 6.66445 20.8203 6.17522 20.6138C6.02909 20.5516 5.93661 20.5318 5.79753 20.6194C5.32313 20.9178 4.80919 21.1151 4.24937 21.1872C3.51306 21.282 2.87416 20.804 3.25397 20.0092C3.25679 20.0029 3.24973 19.9923 3.22926 19.9208C3.0676 19.8834 2.81698 19.737 2.68638 19.8084C1.53779 20.4427 0.883363 21.4142 0.893953 22.7548C0.905248 24.2058 2.02984 25.6023 3.56953 25.8717C4.69765 26.0682 5.86742 26.0223 7.08873 26.0887ZM14.3361 12.7185C14.4498 12.4477 14.538 12.1896 14.6637 11.952C14.8578 11.5843 14.867 11.498 14.5436 11.2315C14.389 11.1042 14.1977 10.9826 14.0064 10.9458C13.6174 10.8723 13.4268 10.7033 13.3873 10.2819C13.3372 9.74943 13.0054 9.38104 12.4858 9.23608C11.9613 9.08972 11.501 9.22901 11.1374 9.64831C10.8282 10.0047 10.7378 10.0188 10.3248 9.78832C9.85326 9.52528 9.38168 9.53872 8.93975 9.84206C8.495 10.1468 8.28957 10.5993 8.4124 11.1191C8.51335 11.5461 8.39264 11.766 8.0326 11.9937C7.39512 12.3968 7.29558 13.3195 7.80245 13.813C7.83775 13.6716 7.87658 13.5401 7.90341 13.4058C7.97894 13.0289 8.20909 12.7977 8.58113 12.7446C8.97787 12.6881 9.39015 12.5983 9.77772 12.6527C10.2966 12.7248 10.7985 12.9221 11.3393 13.0741C11.5906 12.7694 11.6972 12.7192 12.1822 12.7192C12.9065 12.7185 13.6301 12.7185 14.3361 12.7185ZM2.26775 18.9882C2.2854 19.0108 2.30304 19.0335 2.32069 19.0561C2.88475 17.9226 3.93522 17.9919 4.91156 17.9544C4.86496 17.3025 4.81131 16.6746 4.77813 16.046C4.75907 15.6911 4.95956 15.3757 5.28077 15.3248C5.59634 15.2746 5.60481 15.0865 5.61469 14.8532C4.49434 14.8532 3.3881 14.8532 2.26845 14.8532C2.26775 16.244 2.26775 17.6157 2.26775 18.9882ZM25.8969 18.7641C24.8746 19.3672 23.8813 19.959 22.881 20.5381C22.7165 20.6329 22.7264 20.7481 22.7532 20.8924C22.917 21.7614 23.0879 22.629 23.2368 23.5001C23.2679 23.684 23.3399 23.7511 23.5114 23.7808C24.1779 23.894 24.8429 24.0198 25.5086 24.1386C25.9773 24.2227 26.4468 24.3034 26.9381 24.3896C26.965 24.2015 26.9876 24.0467 27.0123 23.8756C26.9071 23.8473 26.8188 23.8211 26.7292 23.8006C25.8143 23.5899 24.8986 23.382 23.9837 23.1699C23.6823 23.0999 23.5206 22.9323 23.5418 22.7053C23.5672 22.4331 23.7578 22.3285 23.9992 22.2846C24.7384 22.1496 25.4775 22.0159 26.2167 21.8795C26.8421 21.7642 27.4676 21.6475 28.1037 21.5295C28.0649 21.3463 28.0324 21.1936 27.9978 21.0324C27.9258 21.043 27.8799 21.0486 27.8354 21.0571C26.5329 21.2954 25.2297 21.5309 23.9286 21.7762C23.6724 21.8243 23.4535 21.8088 23.3307 21.5478C23.2276 21.3287 23.3194 21.1377 23.6067 20.9447C24.3798 20.4257 25.1542 19.9095 25.9272 19.3912C26.002 19.341 26.0726 19.2838 26.1559 19.2222C26.0663 19.0653 25.9893 18.9281 25.8969 18.7641ZM12.1039 13.5776C12.1208 14.1256 12.2669 14.6036 12.5055 15.0618C12.5924 15.2279 12.7018 15.2633 12.8797 15.2845C13.3005 15.3354 13.6252 15.2166 13.8723 14.8701C13.9196 14.8037 13.9923 14.7492 14.0636 14.7061C14.3326 14.5428 14.6622 14.7103 14.6919 15.0229C14.6997 15.1014 14.6933 15.1813 14.6933 15.3524C14.8945 15.2576 15.0562 15.1961 15.2016 15.1084C15.3943 14.9918 15.5885 14.9705 15.7424 15.1332C15.88 15.2781 16.0106 15.305 16.1949 15.2435C16.1419 14.9741 16.1928 14.7542 16.4667 14.6608C16.7003 14.5809 16.8797 14.7103 17.0032 14.8815C17.2489 15.223 17.5687 15.3411 17.9718 15.2767C18.0268 15.2682 18.0868 15.2845 18.1405 15.2725C18.1998 15.259 18.2803 15.2414 18.3064 15.1982C18.605 14.7033 18.797 14.1765 18.7879 13.5776C16.5493 13.5776 14.341 13.5776 12.1039 13.5776ZM18.5027 11.9371C18.8775 11.8134 19.2291 11.6982 19.5799 11.5815C19.6145 11.5702 19.6597 11.5617 19.6774 11.5362C19.8715 11.2612 20.1016 11.0017 20.2421 10.7012C20.4836 10.1836 20.492 9.62922 20.3685 9.07063C20.3332 8.91153 20.2598 8.838 20.0967 8.80335C19.0815 8.58839 18.2196 8.85779 17.5122 9.61013C17.1868 9.95731 16.975 10.3688 16.9001 10.856C17.0378 10.8942 17.1656 10.9062 17.2686 10.9628C17.4769 11.0773 17.6082 10.9981 17.7508 10.8419C17.9922 10.5781 18.2506 10.3299 18.5048 10.0789C18.7504 9.8364 19.0102 9.81024 19.1931 10.0047C19.3689 10.1914 19.3413 10.4381 19.1055 10.6743C18.814 10.9663 18.5154 11.2513 18.2182 11.5412C18.3375 11.7059 18.4349 11.8431 18.5027 11.9371ZM6.78588 1.79896C5.72623 1.79896 4.69836 1.79896 3.66272 1.79896C3.66272 2.38302 3.66272 2.94939 3.66272 3.52001C4.71389 3.52001 5.74176 3.52001 6.78588 3.52001C6.78588 2.94232 6.78588 2.38302 6.78588 1.79896ZM7.92247 20.3543C7.81869 20.2447 7.76151 20.174 7.69374 20.1153C7.53348 19.9774 7.429 19.8197 7.49042 19.5977C7.55325 19.3707 7.73821 19.3156 7.94082 19.2732C8.15332 19.2286 8.36157 19.165 8.57195 19.1098C8.48582 19.0016 8.40464 18.9585 8.31851 18.9359C7.63867 18.7563 6.9666 18.7641 6.29453 18.9903C6.13569 19.0441 5.92814 19.0893 5.78695 19.0313C5.27371 18.8199 4.74495 18.7846 4.20842 18.8333C3.93169 18.8581 3.66131 18.9486 3.3881 19.0094C3.39163 19.0455 3.39445 19.0815 3.39798 19.1169C3.62389 19.172 3.86109 19.201 4.07217 19.2908C4.2296 19.3573 4.42445 19.4782 4.47104 19.6189C4.51199 19.7427 4.3828 19.9336 4.30443 20.0821C4.25784 20.1697 4.16465 20.2327 4.04111 20.3585C4.66235 20.285 5.13464 20.0693 5.5681 19.7582C5.95073 19.4839 6.01921 19.4839 6.41313 19.7639C6.84729 20.0715 7.31958 20.2885 7.92247 20.3543ZM11.64 15.2442C11.5158 14.9126 11.4537 14.5611 11.2701 14.2939C10.8127 13.6278 9.66054 13.2919 8.88398 13.5514C8.81127 13.5755 8.72444 13.6547 8.70467 13.7254C8.57054 14.1998 8.59383 14.6736 8.76821 15.1353C8.78938 15.1919 8.86139 15.2661 8.91293 15.2689C9.18754 15.2824 9.46287 15.2753 9.7629 15.2753C9.73184 15.2067 9.72266 15.182 9.70925 15.1593C9.55111 14.8892 9.56382 14.6778 9.76431 14.5371C9.98669 14.3808 10.1893 14.4466 10.37 14.622C10.4844 14.7337 10.6122 14.8362 10.7054 14.9635C10.9369 15.2788 11.2419 15.334 11.64 15.2442ZM16.0487 10.5619C15.9301 10.5619 15.8002 10.5654 15.6711 10.5612C15.3569 10.5513 15.1748 10.3971 15.1712 10.1426C15.1677 9.87953 15.3647 9.67306 15.6838 9.72468C16.2281 9.81236 16.5782 9.61084 16.8006 9.13285C16.8373 9.05436 16.8825 8.95396 16.8634 8.87971C16.7293 8.36425 16.4801 7.9103 16.1073 7.51999C15.5172 8.10828 14.9489 8.69729 14.3523 9.25588C14.1292 9.46518 14.0325 9.65821 14.1949 9.92549C14.2549 10.0245 14.3502 10.1093 14.4448 10.18C14.735 10.3964 15.0385 10.5958 15.3251 10.8171C15.4155 10.8864 15.4699 11.0024 15.5412 11.0985C15.7861 10.9677 16.1236 10.9833 16.0487 10.5619ZM20.5866 11.7172C21.3279 12.2136 21.3639 12.2575 21.6865 13.0685C21.7599 13.2523 21.8524 13.2488 22.0091 13.1449C22.312 12.944 22.636 12.7758 22.9403 12.5756C23.0116 12.5283 23.0787 12.4081 23.0758 12.3246C23.0561 11.7795 22.6014 11.2661 22.0409 11.1304C21.4599 10.9897 20.8874 11.2209 20.5866 11.7172ZM23.5375 15.2753C23.899 15.2753 24.199 15.2866 24.4977 15.2675C24.5746 15.2626 24.696 15.1763 24.7123 15.1077C24.8054 14.7103 24.9502 14.3038 24.9325 13.9071C24.9043 13.27 24.9375 13.299 24.271 13.2262C24.132 13.2113 23.9887 13.2141 23.8496 13.2304C23.3985 13.2834 22.9834 13.4256 22.6516 13.7268C22.8076 13.9891 22.9488 14.2274 23.0907 14.4657C23.4705 14.1581 23.6738 14.1079 23.8531 14.3179C24.2188 14.7457 23.7663 14.9557 23.5375 15.2753ZM17.8842 12.7072C17.7388 12.0842 17.1698 11.6741 16.5154 11.6967C15.921 11.7172 15.3753 12.1599 15.2828 12.7072C16.1448 12.7072 17.0053 12.7072 17.8842 12.7072ZM6.18511 5.25095C6.18511 4.95681 6.18511 4.68175 6.18511 4.40881C5.52151 4.40881 4.87979 4.40881 4.23525 4.40881C4.23525 4.69872 4.23525 4.96741 4.23525 5.25095C4.88614 5.25095 5.52151 5.25095 6.18511 5.25095ZM7.07673 14.3144C6.70046 14.547 6.49573 14.8461 6.41454 15.2527C6.92071 15.2527 7.39935 15.2527 7.90694 15.2527C7.80316 14.7492 7.24687 14.7202 7.07673 14.3144Z" fill="#3157B9"/>
<path d="M10.2397 10.2417C10.6011 10.2573 10.9209 10.3746 11.1779 10.6355C11.3607 10.8215 11.3762 11.0379 11.2287 11.2196C11.0868 11.3942 10.8588 11.419 10.6477 11.2818C10.1521 10.9615 9.91985 11.0506 9.75889 11.6205C9.69042 11.8645 9.49839 12.0052 9.28449 11.9571C9.03599 11.9005 8.92798 11.7322 8.93928 11.4819C8.96893 10.8081 9.55275 10.2509 10.2397 10.2417Z" fill="#3157B9"/>
<path d="M12.4221 11.3211C12.8605 11.3544 13.2163 11.5644 13.4331 11.9858C13.5552 12.2234 13.4987 12.4659 13.294 12.5762C13.0688 12.6978 12.8817 12.6363 12.7278 12.4362C12.444 12.0671 12.2562 12.0749 11.9823 12.468C11.8425 12.6689 11.659 12.7191 11.443 12.6271C11.2389 12.5402 11.1606 12.3075 11.2418 12.0756C11.3964 11.6358 11.9061 11.3013 12.4221 11.3211Z" fill="#3157B9"/>
<path d="M13.2738 14.6421C13.1439 14.6258 13.0105 14.6244 12.8855 14.5905C12.6773 14.5339 12.5728 14.3762 12.5904 14.1669C12.6074 13.9605 12.7295 13.8127 12.9462 13.7922C13.1418 13.7738 13.3401 13.7759 13.5371 13.783C13.8054 13.7929 13.9812 13.9583 13.9868 14.1888C13.9917 14.4172 13.8223 14.5926 13.5569 14.6223C13.4644 14.6329 13.3691 14.6237 13.2752 14.6237C13.2745 14.6301 13.2738 14.6364 13.2738 14.6421Z" fill="#3157B9"/>
<path d="M17.6358 13.7822C17.7205 13.7822 17.8052 13.7772 17.8892 13.7836C18.1448 13.8027 18.3142 13.9575 18.3121 14.1845C18.3093 14.4228 18.1815 14.5826 17.945 14.6087C17.7325 14.6321 17.5129 14.6349 17.3004 14.6123C17.0449 14.584 16.903 14.4044 16.9235 14.1718C16.946 13.913 17.1063 13.7942 17.3548 13.7829C17.448 13.7779 17.5419 13.7815 17.6358 13.7822Z" fill="#3157B9"/>
<path d="M16.3172 8.50814C16.3136 8.86522 15.7644 9.44008 15.5089 9.40826C15.379 9.392 15.2124 9.29654 15.1538 9.18695C15.0959 9.07947 15.1029 8.87442 15.1714 8.77401C15.3062 8.57673 15.4863 8.39643 15.6832 8.26067C15.7828 8.19279 15.9804 8.19349 16.0962 8.24582C16.2106 8.29885 16.2762 8.45582 16.3172 8.50814Z" fill="#3157B9"/>
</g>
<defs>
<clipPath id="clip0_896_1655">
<rect width="28.9118" height="25.9465" fill="white" transform="translate(0.0440674 0.930664)"/>
</clipPath>
</defs>
</svg>
