<svg width="33" height="30" viewBox="0 0 33 30" fill="none" xmlns="http://www.w3.org/2000/svg">
<g clip-path="url(#clip0_896_1624)">
<path d="M0.932129 15.0588C0.953238 15.0152 0.980842 14.9732 0.993832 14.928C1.26338 14.0055 2.00869 13.4143 2.94073 13.3836C3.80782 13.3561 4.59048 13.9022 4.91524 14.7664C4.9331 14.8133 4.94933 14.8617 4.97044 14.9231H8.20337C8.33002 14.2495 8.45668 13.5807 8.59307 12.8618C8.50052 12.8618 8.39497 12.8618 8.29105 12.8618C7.31841 12.8618 6.34578 12.8618 5.37476 12.8618C4.86003 12.8618 4.70577 12.7035 4.70577 12.1898C4.70577 11.4547 4.69765 10.7181 4.71064 9.98306C4.71551 9.76336 4.66517 9.65028 4.44109 9.56304C3.52204 9.2141 3.02842 8.31753 3.18105 7.33048C3.32232 6.41613 4.12446 5.71664 5.10359 5.65202C6.00966 5.59225 6.87512 6.20128 7.15117 7.09463C7.46455 8.11236 6.94332 9.19149 5.92684 9.5792C5.72874 9.65512 5.67029 9.74236 5.67354 9.94429C5.68653 10.5775 5.67841 11.2124 5.67841 11.8715C5.78233 11.8796 5.87164 11.8925 5.95932 11.8925C6.9011 11.8925 7.84289 11.8974 8.78468 11.8877C8.8886 11.8877 9.03799 11.8408 9.0867 11.7649C9.43906 11.227 9.77031 10.6761 10.1259 10.101C9.83201 10.101 9.52512 10.101 9.21822 10.101C8.64666 10.101 8.51513 9.97337 8.51513 9.41442C8.51513 8.03321 8.51026 6.65361 8.52 5.27239C8.52 5.064 8.46804 4.96223 8.25695 4.88307C7.34115 4.53736 6.80368 3.58101 6.97742 2.65859C7.15928 1.68931 7.95818 0.991437 8.91296 0.96559C9.92456 0.939743 10.7705 1.58754 10.9946 2.56004C11.2187 3.53093 10.6812 4.51636 9.71347 4.89599C9.57221 4.95092 9.47803 4.99453 9.47965 5.18193C9.48939 6.44198 9.48452 7.70042 9.48615 8.96048C9.48615 9.00894 9.49589 9.05579 9.50401 9.13333C10.0399 9.13333 10.5643 9.13979 11.0888 9.12687C11.1765 9.12525 11.2723 9.05417 11.3486 8.9944C14.4013 6.60514 18.5387 6.6003 21.6125 8.97663C21.7277 9.06548 21.8999 9.12202 22.0476 9.12848C22.5315 9.14787 23.0154 9.13494 23.5188 9.13494V4.98323C22.8936 4.78291 22.3951 4.40489 22.1304 3.76679C21.9502 3.33223 21.9242 2.88798 22.0557 2.43727C22.3302 1.49546 23.1924 0.905818 24.2024 0.970436C25.0922 1.02698 25.8911 1.75393 26.034 2.64082C26.2061 3.71025 25.6897 4.51474 24.5093 4.99292C24.5093 5.82003 24.5093 6.65522 24.5093 7.49203C24.5093 8.17698 24.5125 8.86193 24.5076 9.5485C24.5044 9.9249 24.3242 10.0994 23.9442 10.1042C23.5821 10.1091 23.2184 10.1042 22.8027 10.1042C23.0024 10.3805 23.1875 10.6131 23.3483 10.8619C23.5285 11.1413 23.6811 11.437 23.8598 11.7181C23.9068 11.7924 24.001 11.8877 24.0741 11.8877C25.1458 11.899 26.2175 11.8958 27.3151 11.8958C27.3249 11.7875 27.3379 11.7003 27.3379 11.6131C27.3411 11.2609 27.3135 10.9055 27.3444 10.5549C27.3947 10.0154 27.3184 9.65189 26.7257 9.36596C25.8846 8.96209 25.5858 7.91689 25.8878 7.03647C26.1866 6.16412 27.0586 5.57933 27.95 5.65526C28.9308 5.73926 29.6972 6.42744 29.8482 7.36279C29.996 8.27714 29.5056 9.19149 28.6336 9.54366C28.3657 9.65189 28.3008 9.78597 28.3073 10.0493C28.3235 10.7746 28.3154 11.5 28.3121 12.2253C28.3089 12.7003 28.1481 12.8586 27.6691 12.8602C26.6867 12.8634 25.7044 12.8602 24.722 12.8602C24.6132 12.8602 24.5028 12.8602 24.3891 12.8602C24.5223 13.5645 24.6505 14.2398 24.7821 14.936C25.8148 14.936 26.8572 14.9409 27.8997 14.9247C27.9809 14.9247 28.0913 14.781 28.1319 14.6824C28.4648 13.886 29.2458 13.3561 30.0772 13.382C30.9491 13.4078 31.748 13.9555 31.9754 14.781C32.2709 15.8552 31.9007 16.8697 30.764 17.3221C29.7346 17.7308 28.5703 17.2219 28.1595 16.1896C28.0702 15.9635 27.9646 15.8956 27.7259 15.8989C26.7452 15.9134 25.7628 15.9053 24.7837 15.9053C24.6522 16.5983 24.5239 17.2752 24.3891 17.9876C24.4979 17.9876 24.6051 17.9876 24.7139 17.9876C25.6962 17.9876 26.6786 17.9876 27.661 17.9876C28.1611 17.9876 28.3138 18.1411 28.3154 18.6387C28.3186 19.385 28.3219 20.1297 28.3121 20.8761C28.3089 21.0812 28.3576 21.1911 28.5719 21.2735C29.5024 21.6305 30.0301 22.5885 29.8433 23.5303C29.6501 24.5028 28.7895 25.2103 27.8136 25.199C26.8377 25.1861 26.0064 24.4915 25.8148 23.5286C25.628 22.5885 26.159 21.6273 27.0878 21.2735C27.3005 21.1927 27.3525 21.0861 27.3492 20.8777C27.3379 20.2541 27.3444 19.6306 27.3444 18.9795C27.2372 18.9698 27.1511 18.9553 27.0651 18.9553C26.1135 18.9537 25.1604 18.9585 24.2089 18.9504C24.0238 18.9504 23.928 19.0086 23.8321 19.1734C23.5285 19.6936 23.1973 20.1976 22.8546 20.7404C23.1956 20.7404 23.5431 20.7404 23.889 20.7404C24.3453 20.7436 24.5141 20.9068 24.5141 21.3575C24.5158 22.8485 24.5141 24.3396 24.5141 25.8549C25.1588 26.0601 25.6556 26.4397 25.9187 27.0778C26.0973 27.5124 26.1217 27.9566 25.9901 28.4073C25.7141 29.3427 24.8762 29.9226 23.8727 29.8725C22.9651 29.8273 22.1678 29.1084 22.0152 28.1989C21.8365 27.1376 22.3561 26.3315 23.5317 25.8533V21.7113C22.9651 21.7113 22.4032 21.7048 21.8414 21.7193C21.757 21.721 21.6725 21.8195 21.593 21.8793C18.5322 24.2427 14.4143 24.2298 11.3535 21.8534C11.2447 21.7694 11.0839 21.7177 10.9459 21.7129C10.4734 21.6951 9.99926 21.7064 9.50888 21.7064V25.8614C10.1324 26.0601 10.6228 26.4381 10.8875 27.0616C11.0677 27.4833 11.0921 27.9211 10.9751 28.3637C10.7267 29.2958 9.90508 29.9 8.92432 29.8758C7.98741 29.8532 7.19338 29.1811 6.99691 28.2458C6.78095 27.2135 7.27295 26.4268 8.52 25.8355C8.52 24.9082 8.52 23.9713 8.52 23.0343C8.52 22.4495 8.51513 21.8647 8.52163 21.2816C8.5265 20.9165 8.69862 20.7468 9.06397 20.7404C9.41632 20.7339 9.77031 20.7404 10.1795 20.7404C9.99763 20.49 9.83201 20.2816 9.68749 20.0587C9.49589 19.763 9.32864 19.4529 9.13704 19.1556C9.08345 19.0732 8.98602 18.965 8.90646 18.9634C7.84452 18.9505 6.78257 18.9553 5.68165 18.9553C5.68165 19.6742 5.67354 20.3656 5.69302 21.0554C5.69464 21.1265 5.84078 21.2169 5.93659 21.2589C6.71275 21.5933 7.16903 22.1765 7.2356 23.0101C7.29731 23.7936 6.97417 24.4317 6.30681 24.8614C5.61833 25.3056 4.88925 25.3218 4.17967 24.9163C3.46846 24.5092 3.11772 23.8695 3.15994 23.0569C3.20378 22.2185 3.63895 21.6127 4.41999 21.2896C4.64244 21.1975 4.72038 21.099 4.71551 20.8583C4.69765 20.1233 4.70739 19.3866 4.70902 18.6516C4.70902 18.1427 4.86327 17.9909 5.3845 17.9893C6.3474 17.9876 7.30867 17.9893 8.27157 17.9893C8.38036 17.9893 8.48915 17.9893 8.59957 17.9893C8.46642 17.2865 8.33977 16.6193 8.20824 15.9279H4.98019C4.94446 16.0216 4.90874 16.1234 4.86652 16.2236C4.53852 16.9844 3.75262 17.4917 2.9456 17.4658C2.08338 17.4384 1.3397 16.8972 1.05391 16.0927C1.01819 15.9909 0.977594 15.8892 0.938624 15.789C0.938624 15.5467 0.938624 15.306 0.938624 15.0637L0.932129 15.0588ZM23.7818 15.4174C23.7802 11.437 20.5099 8.18183 16.5219 8.16567C12.594 8.14952 9.06721 11.3497 9.21173 15.7066C9.33351 19.3818 12.3586 22.6531 16.4976 22.6708C20.5034 22.687 23.7834 19.406 23.7818 15.4174ZM24.0351 4.06242C24.631 4.05757 25.1149 3.56647 25.1003 2.97845C25.0857 2.39527 24.6132 1.93486 24.0254 1.93325C23.4278 1.93325 22.9407 2.41304 22.9439 3.00106C22.9472 3.58909 23.4376 4.06565 24.0335 4.0608L24.0351 4.06242ZM26.7549 23.1474C26.7501 23.7435 27.2274 24.2298 27.8201 24.233C28.3982 24.2362 28.8837 23.7629 28.8934 23.1862C28.9048 22.5885 28.4388 22.1006 27.8429 22.0877C27.2551 22.0747 26.7582 22.5561 26.7549 23.149V23.1474ZM1.90477 15.411C1.8999 15.999 2.38703 16.4917 2.97645 16.4933C3.55614 16.495 4.03678 16.0249 4.04814 15.4465C4.05951 14.8504 3.59186 14.3626 2.99594 14.3496C2.41138 14.3367 1.90964 14.8246 1.90477 15.411ZM24.0189 28.9113C24.6181 28.9113 25.1036 28.4332 25.0987 27.8419C25.0954 27.262 24.6213 26.7903 24.0384 26.7822C23.4392 26.7757 22.9504 27.2474 22.9423 27.8355C22.9358 28.4219 23.423 28.9081 24.0189 28.9097V28.9113ZM28.8934 7.68104C28.8918 7.08655 28.4047 6.60676 27.8104 6.61645C27.2242 6.62614 26.7582 7.09463 26.7533 7.6778C26.7501 8.27229 27.2291 8.76016 27.8201 8.76016C28.4112 8.76016 28.8934 8.27552 28.8918 7.68104H28.8934ZM5.20427 24.2298C5.79207 24.2201 6.28407 23.7177 6.27108 23.1377C6.25809 22.5529 5.74661 22.065 5.16692 22.0844C4.58723 22.1022 4.11472 22.5868 4.11796 23.1603C4.11959 23.7467 4.62133 24.2378 5.20589 24.2281L5.20427 24.2298ZM6.27271 7.67296C6.26459 7.08816 5.75797 6.6003 5.17341 6.61484C4.59211 6.62937 4.11959 7.10755 4.11959 7.68427C4.11959 8.27068 4.61484 8.76339 5.20102 8.75854C5.7872 8.7537 6.28245 8.25291 6.27271 7.67296ZM10.0658 2.99137C10.0626 2.39204 9.58844 1.9284 8.9844 1.93325C8.40147 1.93809 7.92895 2.40819 7.92408 2.98814C7.91921 3.58101 8.39822 4.0608 8.99577 4.0608C9.59819 4.0608 10.0691 3.5907 10.0675 2.99137H10.0658ZM10.0658 27.8435C10.0658 27.2442 9.59169 26.7773 8.98765 26.7822C8.40309 26.7854 7.93058 27.2539 7.92408 27.8338C7.91758 28.4299 8.39335 28.9081 8.99252 28.9097C9.59494 28.9113 10.0675 28.4429 10.0658 27.8435ZM31.1196 15.4449C31.1375 14.8666 30.6487 14.3609 30.0593 14.348C29.4877 14.3367 28.9925 14.802 28.9649 15.3803C28.9373 15.957 29.4179 16.4675 30.0106 16.4917C30.5903 16.5143 31.1018 16.0313 31.1196 15.4449Z" fill="#4043B2"/>
<path d="M16.975 18.9697C16.975 19.2346 16.9815 19.4753 16.9734 19.716C16.962 20.0245 16.7639 20.2216 16.483 20.2184C16.2054 20.2152 16.0138 20.0165 16.004 19.7047C15.9975 19.4656 16.004 19.2265 16.004 18.9713C15.7946 18.9583 15.6143 18.9551 15.4357 18.9341C14.7521 18.8566 14.2455 18.5092 13.9094 17.9196C13.7437 17.6304 13.8119 17.3526 14.062 17.212C14.2974 17.0796 14.5767 17.1539 14.7342 17.4204C14.9681 17.8178 15.3107 17.9923 15.7653 17.9858C16.2005 17.9794 16.6357 17.9907 17.0708 17.9826C17.7463 17.9697 18.1994 17.5384 18.1929 16.9309C18.1864 16.33 17.7138 15.9067 17.0465 15.9035C16.6308 15.9019 16.2167 15.91 15.801 15.9003C14.7212 15.8777 13.8428 15.0182 13.8184 13.965C13.7924 12.8697 14.5946 11.9828 15.6906 11.8988C15.7897 11.8907 15.8887 11.881 16.0056 11.8713C16.0056 11.6177 16.0008 11.3867 16.0056 11.1557C16.0138 10.8229 16.2037 10.6194 16.4944 10.6226C16.7834 10.6258 16.9685 10.8294 16.975 11.1654C16.9799 11.3948 16.975 11.6242 16.975 11.8697C17.1829 11.8827 17.3631 11.8859 17.5434 11.9053C18.227 11.9812 18.7319 12.3301 19.0697 12.9198C19.2353 13.2089 19.1671 13.4868 18.9171 13.6273C18.6832 13.7598 18.4023 13.6855 18.2448 13.4189C18.011 13.0215 17.6684 12.8471 17.2137 12.8535C16.7688 12.86 16.3223 12.8455 15.8774 12.8584C15.2246 12.8745 14.7813 13.3091 14.7878 13.9084C14.7943 14.4997 15.2587 14.931 15.9017 14.9359C16.3271 14.9391 16.7526 14.931 17.178 14.9391C18.2578 14.9601 19.1346 15.8195 19.1622 16.8744C19.1899 17.9665 18.3845 18.8566 17.29 18.9422C17.191 18.9503 17.0919 18.96 16.975 18.9697Z" fill="#4043B2"/>
<path d="M14.4873 10.1784C14.4857 10.4562 14.2876 10.5758 14.0733 10.684C12.9772 11.2381 12.1767 12.0765 11.6457 13.175C11.5581 13.356 11.498 13.5498 11.42 13.7356C11.2982 14.0248 11.0482 14.1524 10.7933 14.0587C10.5302 13.9634 10.4036 13.7081 10.5042 13.419C11.0904 11.7502 12.1832 10.5225 13.781 9.74866C14.1317 9.57903 14.4906 9.81328 14.4873 10.1784Z" fill="#4043B2"/>
</g>
<defs>
<clipPath id="clip0_896_1624">
<rect width="31.1358" height="28.9118" fill="white" transform="translate(0.932129 0.965332)"/>
</clipPath>
</defs>
</svg>
