<svg width="31" height="29" viewBox="0 0 31 29" fill="none" xmlns="http://www.w3.org/2000/svg">
<g clip-path="url(#clip0_896_1642)">
<path d="M13.4715 12.7805C13.4715 11.9728 13.4715 11.2095 13.4715 10.4455C13.4715 9.92657 13.633 9.76284 14.1439 9.762C15.0514 9.76032 15.9581 9.76032 16.8657 9.762C17.3571 9.76284 17.5228 9.93161 17.5237 10.4278C17.5254 11.2003 17.5237 11.9728 17.5237 12.7796C18.2959 12.7796 19.0419 12.7796 19.787 12.7796C20.4332 12.7796 20.5626 12.9081 20.5626 13.5496C20.5626 14.4186 20.5643 15.2885 20.5626 16.1575C20.5618 16.6302 20.3892 16.8015 19.9156 16.8031C19.1349 16.8048 18.3551 16.8031 17.5237 16.8031C17.5237 16.9131 17.5237 17.0122 17.5237 17.1113C17.5237 17.8023 17.5254 18.4942 17.5237 19.1852C17.522 19.6403 17.3478 19.8191 16.8978 19.8208C15.959 19.8233 15.0201 19.8241 14.0813 19.8208C13.6533 19.8191 13.474 19.6352 13.4723 19.202C13.4698 18.4178 13.4723 17.6327 13.4723 16.8191C13.3565 16.8132 13.255 16.8048 13.1543 16.8048C12.4371 16.8031 11.7198 16.8082 11.0026 16.8023C10.6288 16.799 10.4376 16.6092 10.4351 16.2372C10.43 15.2733 10.43 14.3103 10.4351 13.3464C10.4376 12.9644 10.633 12.783 11.0339 12.7813C11.834 12.7771 12.6333 12.7805 13.4732 12.7805H13.4715ZM14.4847 10.7813C14.4847 11.5588 14.4847 12.301 14.4847 13.0441C14.4847 13.6453 14.3435 13.7864 13.7455 13.7872C12.9894 13.7872 12.2332 13.7872 11.4644 13.7872V15.7989C11.5862 15.7989 11.6894 15.7989 11.7926 15.7989C12.4887 15.7989 13.1839 15.7964 13.88 15.7998C14.2953 15.8023 14.4797 15.9837 14.4839 16.3917C14.489 16.8527 14.4847 17.3128 14.4847 17.7738C14.4847 18.1147 14.4847 18.4564 14.4847 18.7931H16.5113C16.5113 17.9845 16.5087 17.2003 16.5121 16.4161C16.5138 15.9828 16.6931 15.8023 17.1236 15.8006C17.8299 15.7973 18.5361 15.7998 19.2432 15.7998C19.343 15.7998 19.4419 15.7998 19.5324 15.7998V13.788C19.4115 13.788 19.3083 13.788 19.2043 13.788C18.5082 13.788 17.8129 13.7906 17.1169 13.7872C16.7007 13.7847 16.5172 13.6033 16.5121 13.1961C16.5079 12.8401 16.5113 12.4841 16.5113 12.1281C16.5113 11.6822 16.5113 11.2364 16.5113 10.783H14.4847V10.7813Z" fill="#3252B7"/>
<path d="M14.7673 28.8315C13.7236 28.8315 12.6791 28.8609 11.6362 28.8223C10.8268 28.792 10.0715 28.5074 9.34579 28.1573C8.21834 27.6132 7.0909 27.0691 5.96261 26.5267C5.01701 26.0725 4.01813 25.85 2.96681 25.8575C2.28087 25.8626 1.59493 25.8609 0.908991 25.8575C0.533459 25.8558 0.307632 25.6661 0.303403 25.3621C0.299174 25.0565 0.526692 24.8458 0.895458 24.8558C2.05335 24.8869 3.22055 24.8592 4.3666 24.9961C5.08214 25.0817 5.78922 25.3714 6.45909 25.6636C7.59668 26.159 8.70298 26.7257 9.82028 27.2664C10.6492 27.6678 11.5195 27.8752 12.4439 27.8726C14.0687 27.8676 15.6935 27.8726 17.3182 27.8676C17.4713 27.8676 17.6346 27.8399 17.7767 27.7828C19.0936 27.2505 20.4037 26.7022 21.7231 26.1766C21.9726 26.0767 22.0293 25.9423 21.987 25.7005C21.9016 25.2169 21.6335 24.9331 21.1463 24.8508C20.512 24.7442 19.9114 24.9213 19.3109 25.0817C18.9861 25.1682 18.6673 25.2799 18.3459 25.3806C17.9551 25.5032 17.6862 25.4092 17.5838 25.1119C17.4781 24.8071 17.6244 24.5385 18.0109 24.4369C18.8432 24.2177 19.6763 23.9851 20.5238 23.8441C20.9103 23.7794 21.351 23.8575 21.7316 23.9784C22.6789 24.2807 23.2016 25.3336 22.9352 26.2849C22.8354 26.6401 22.6281 26.8928 22.2771 27.0355C20.8342 27.6216 19.3955 28.2169 17.9509 28.7996C17.8096 28.8567 17.6439 28.8726 17.4891 28.8735C16.5816 28.8802 15.674 28.8768 14.7665 28.8768C14.7665 28.8617 14.7665 28.8466 14.7665 28.8323L14.7673 28.8315Z" fill="#3252B7"/>
<path d="M16.2063 0.753743C17.261 0.753743 18.3157 0.726035 19.3687 0.762979C20.1342 0.789847 20.8548 1.04761 21.5441 1.37759C22.7587 1.95861 23.969 2.54971 25.187 3.12402C26.0674 3.5388 27.002 3.72772 27.9755 3.72688C28.6716 3.72688 29.3686 3.7252 30.0646 3.72688C30.4622 3.72856 30.6948 3.91831 30.6931 4.2315C30.6914 4.54384 30.4588 4.74031 30.0596 4.7294C28.922 4.69833 27.7759 4.7294 26.6519 4.5917C25.9262 4.5027 25.2081 4.21302 24.5289 3.91663C23.3626 3.40866 22.2301 2.82259 21.0815 2.27348C20.2898 1.8948 19.4542 1.71092 18.5745 1.7126C16.9388 1.71596 15.3039 1.71092 13.6681 1.71764C13.515 1.71764 13.3526 1.74871 13.2114 1.80664C11.9046 2.33561 10.6038 2.88137 9.29364 3.4011C9.03483 3.50354 8.95786 3.63116 9.00776 3.89312C9.09911 4.37423 9.36722 4.65467 9.85609 4.73611C10.4803 4.83939 11.0707 4.66559 11.661 4.51109C12.0069 4.42041 12.3436 4.29615 12.6861 4.19119C13.0498 4.07952 13.3188 4.18951 13.4135 4.48003C13.5099 4.77726 13.3712 5.04426 13.0058 5.13998C12.1423 5.365 11.2804 5.6236 10.4008 5.75291C9.36976 5.90488 8.49098 5.42209 8.17719 4.57742C8.04102 4.21134 8.02495 3.77893 8.05117 3.38263C8.07739 2.98884 8.3362 2.70589 8.7278 2.54803C10.1521 1.97373 11.5714 1.38431 12.9957 0.808319C13.1471 0.747026 13.3205 0.71428 13.4837 0.712601C14.3912 0.703365 15.2988 0.708403 16.2055 0.708403C16.2055 0.723516 16.2055 0.738629 16.2055 0.753743H16.2063Z" fill="#3252B7"/>
<path d="M15.4452 4.28333C15.2887 4.95672 15.4664 5.51339 15.9493 5.93405C16.2682 6.21197 16.6454 6.44706 17.0336 6.62003C18.0224 7.06167 19.0348 7.45042 20.0294 7.87779C20.18 7.94245 20.3407 8.07343 20.4109 8.21617C20.975 9.36142 21.9299 9.94329 23.1589 10.1406C24.0326 10.2808 24.8792 10.1532 25.7081 9.86352C25.8544 9.8123 26.0126 9.7678 26.1657 9.76696C27.4733 9.75941 28.7817 9.76444 30.0893 9.76109C30.3583 9.76109 30.5672 9.84421 30.6644 10.1079C30.7913 10.4546 30.5283 10.7653 30.0986 10.767C28.8857 10.7712 27.6729 10.7644 26.46 10.7728C26.2756 10.7737 26.0845 10.8106 25.9077 10.8669C24.0875 11.4471 22.341 11.3824 20.7737 10.1935C20.3407 9.8652 20.0328 9.3757 19.6607 8.96679C19.56 8.85596 19.4484 8.73254 19.3156 8.67544C18.3886 8.27662 17.4498 7.90214 16.5228 7.50164C15.8563 7.21365 15.2676 6.81146 14.8464 6.20777C14.2214 5.3102 14.251 4.3631 14.6654 3.40088C14.7948 3.10197 15.0562 3.03564 15.4148 3.18258C16.5634 3.65277 17.7094 4.128 18.8572 4.60155C19.5769 4.89794 20.2959 5.19517 21.0165 5.48904C21.2617 5.58896 21.4326 5.74429 21.4199 6.02557C21.403 6.39836 21.0427 6.58896 20.646 6.42691C19.467 5.94664 18.2922 5.45882 17.1148 4.97351C16.571 4.74933 16.0271 4.52515 15.4427 4.28417L15.4452 4.28333Z" fill="#3252B7"/>
<path d="M15.5514 25.2894C15.7112 24.637 15.5404 24.0752 15.0532 23.6596C14.6997 23.3574 14.2835 23.1063 13.8581 22.9149C12.9091 22.4875 11.9348 22.1172 10.9765 21.7092C10.8335 21.6479 10.6703 21.5362 10.606 21.4044C9.94462 20.0475 8.79011 19.485 7.34719 19.3909C6.66632 19.3464 6.0066 19.4791 5.35872 19.6915C5.13374 19.7654 4.88931 19.8141 4.65333 19.8166C3.41932 19.8284 2.18531 19.8234 0.950446 19.8217C0.53347 19.8217 0.293264 19.6269 0.302568 19.3045C0.311872 18.9938 0.541927 18.8166 0.947063 18.8166C2.14978 18.815 3.3525 18.82 4.55437 18.8124C4.72861 18.8116 4.91045 18.778 5.07623 18.7226C6.65786 18.1995 8.20567 18.2071 9.69511 19.0207C10.3734 19.3918 10.8987 19.9266 11.3182 20.5748C11.4171 20.7276 11.5855 20.8679 11.7538 20.9409C12.6123 21.3137 13.4826 21.6596 14.3453 22.0223C15.0143 22.3036 15.6191 22.6831 16.0656 23.2642C16.7643 24.1735 16.7643 25.1592 16.3354 26.1726C16.206 26.4783 15.9447 26.5538 15.5928 26.4103C14.2497 25.8595 12.9091 25.3036 11.5669 24.7486C11.0518 24.5354 10.5367 24.3229 10.0216 24.1088C9.63506 23.9485 9.4862 23.6857 9.61476 23.3901C9.7374 23.108 10.0275 23.0257 10.3963 23.1777C12.0599 23.8611 13.7228 24.5471 15.3865 25.2314C15.4338 25.2507 15.4837 25.2658 15.5514 25.2894Z" fill="#3252B7"/>
<path d="M26.1327 14.8327C26.109 17.1072 25.4442 19.1752 24.0859 21.0123C23.9835 21.1509 23.8025 21.2894 23.6427 21.3112C23.5014 21.3306 23.273 21.2231 23.2003 21.1022C23.12 20.9687 23.1208 20.7361 23.18 20.5824C23.2604 20.3734 23.4354 20.2021 23.5598 20.0081C24.9401 17.8679 25.4019 15.5463 24.9562 13.0442C24.9435 12.972 24.9308 12.8998 24.9257 12.8268C24.9029 12.501 25.0695 12.276 25.3596 12.239C25.6227 12.2054 25.873 12.3767 25.917 12.6798C26.0058 13.2894 26.0633 13.904 26.1301 14.517C26.1411 14.6202 26.1318 14.726 26.1318 14.831L26.1327 14.8327Z" fill="#3252B7"/>
<path d="M4.85155 15.0767C4.88961 12.4722 5.55356 10.4159 6.89584 8.58131C7.11828 8.27652 7.36525 8.19508 7.61899 8.33446C7.9091 8.49315 7.96492 8.82648 7.73402 9.14218C7.09122 10.0213 6.59896 10.9751 6.28517 12.0162C5.83606 13.5057 5.75063 15.0162 6.03989 16.546C6.04159 16.5561 6.04412 16.5662 6.04666 16.5771C6.13547 17.0473 6.0086 17.321 5.67789 17.3764C5.3345 17.4335 5.1146 17.2345 5.05116 16.7644C4.95982 16.0918 4.89046 15.4167 4.85071 15.0784L4.85155 15.0767Z" fill="#3252B7"/>
<path d="M9.00667 6.7124C9.28409 6.7166 9.49892 6.93658 9.49723 7.21534C9.49553 7.50082 9.2215 7.77622 8.93477 7.78041C8.65059 7.78461 8.40869 7.54028 8.42138 7.2632C8.43406 6.98696 8.73009 6.7082 9.00751 6.71324L9.00667 6.7124Z" fill="#3252B7"/>
<path d="M22.6535 22.3448C22.6552 22.6084 22.3752 22.8721 22.0944 22.8704C21.8221 22.8687 21.5912 22.642 21.5903 22.375C21.5886 22.0979 21.8508 21.8519 22.1477 21.8511C22.415 21.8511 22.6518 22.082 22.6535 22.3448Z" fill="#3252B7"/>
</g>
<defs>
<clipPath id="clip0_896_1642">
<rect width="30.3945" height="28.1705" fill="white" transform="translate(0.302795 0.706543)"/>
</clipPath>
</defs>
</svg>
