<svg width="27" height="29" viewBox="0 0 27 29" fill="none" xmlns="http://www.w3.org/2000/svg">
<g clip-path="url(#clip0_896_1611)">
<path d="M13.7764 0.794434C13.9836 0.88429 14.206 0.948369 14.3942 1.06916C15.0491 1.48972 15.257 2.1688 15.0302 3.10272C17.9033 3.57189 20.272 4.933 22.0708 7.25676C23.8748 9.58641 24.5355 12.2666 24.3334 15.1988C24.5275 15.2238 24.6808 15.2312 24.8276 15.2658C25.6497 15.458 26.1766 16.2137 26.0937 17.071C26.0145 17.8915 25.3124 18.5323 24.4526 18.5375C22.9176 18.547 21.3818 18.5404 19.8468 18.5404C19.7392 18.5404 19.6309 18.5404 19.5335 18.5404C19.4805 18.7813 19.4819 19.0309 19.3715 19.2129C19.2254 19.4545 19.0248 19.6901 18.7929 19.8448C17.2041 20.9091 15.5986 21.9483 14.0054 23.0067C13.8477 23.1113 13.7038 23.2726 13.6129 23.4398C12.8846 24.7899 11.8438 25.7768 10.4135 26.3292C10.2965 26.3742 10.186 26.4427 10.0821 26.5141C8.96422 27.2845 7.84928 28.0593 6.73217 28.8305C6.29826 29.1295 6.0606 29.0868 5.74443 28.6618C5.17098 27.8914 4.59752 27.121 4.02552 26.3499C3.70572 25.9183 3.75369 25.634 4.19196 25.3415C4.63168 25.0484 5.06704 24.7494 5.51403 24.4673C5.67684 24.3649 5.74516 24.2478 5.7626 24.0519C5.8629 22.9154 6.29754 21.9653 7.28382 21.3304C7.35214 21.2862 7.41974 21.1993 7.43573 21.1212C7.61162 20.2705 7.7766 19.4169 7.95031 18.5397C7.8442 18.5397 7.74535 18.5397 7.64723 18.5397C5.95739 18.5397 4.26755 18.547 2.57844 18.5367C1.31451 18.5286 0.516467 17.2434 1.08193 16.1327C1.35957 15.5869 1.81238 15.2813 2.42435 15.2312C2.48686 15.226 2.54864 15.2179 2.65039 15.2076C2.65039 15.0691 2.6533 14.9351 2.65039 14.8018C2.6155 13.4267 2.69037 12.0604 3.13663 10.7487C4.56336 6.54895 7.43064 4.01087 11.7457 3.15575C11.8235 3.14029 11.9005 3.11598 11.9769 3.09536C11.7363 2.12829 12.0008 1.38955 12.7298 0.996243C12.8868 0.911542 13.0634 0.861458 13.2313 0.794434C13.413 0.794434 13.5947 0.794434 13.7764 0.794434ZM3.76532 15.2047H23.249V14.1227C23.1349 14.1227 23.0375 14.1227 22.9394 14.1227C21.8223 14.1227 20.7052 14.1227 19.5888 14.1227C19.3511 14.1227 19.136 14.0778 18.9986 13.8546C18.7573 13.4635 19.0291 13.0209 19.5263 13.0179C20.6521 13.0105 21.7787 13.0157 22.9045 13.015C23.0004 13.015 23.0964 13.015 23.1945 13.015C22.8747 8.50739 18.8598 3.89155 13.0896 4.12061C7.81876 4.33052 3.21949 8.88081 3.76532 15.2047ZM6.40874 27.7169C7.35941 27.0628 8.28101 26.4265 9.20552 25.7945C9.4381 25.6354 9.66123 25.4388 9.91925 25.3445C11.2021 24.8761 12.1033 23.9937 12.7109 22.7836C12.8396 22.528 13.0097 22.3365 13.2459 22.1826C14.8914 21.1058 16.534 20.0238 18.1722 18.9367C18.2631 18.8763 18.3139 18.7547 18.383 18.6619C18.274 18.6214 18.1657 18.5507 18.0552 18.5463C17.702 18.5316 17.3466 18.5286 16.9933 18.5463C16.8378 18.5537 16.6684 18.5905 16.5332 18.6656C15.3965 19.2968 14.2656 19.9406 13.1332 20.5791C12.3962 20.9945 11.6578 21.407 10.9215 21.8239C10.7144 21.941 10.5072 21.9638 10.3037 21.8327C10.098 21.6994 10.0355 21.4961 10.0661 21.2582C10.0755 21.1853 10.0813 21.1124 10.0908 21.0395C10.1664 20.4753 10.247 19.9126 10.3161 19.3477C10.3757 18.8601 9.98902 18.4778 9.51877 18.5493C9.20915 18.5964 9.00492 18.8284 8.92787 19.218C8.76943 20.0186 8.60444 20.8178 8.45472 21.6199C8.40457 21.888 8.25775 22.0404 8.03753 22.1892C7.75625 22.3785 7.47788 22.6024 7.27292 22.8698C6.9226 23.3271 6.82302 23.8884 6.83393 24.4577C6.83974 24.7781 6.72563 24.9946 6.45744 25.1626C6.02062 25.4366 5.59689 25.7319 5.15281 26.0287C5.57581 26.5981 5.98355 27.1468 6.40801 27.7176L6.40874 27.7169ZM13.493 16.3323C9.92434 16.3323 6.35568 16.3323 2.7863 16.3323C2.68673 16.3323 2.5857 16.3286 2.48686 16.3382C2.22448 16.364 2.02897 16.5584 2.00135 16.814C1.97155 17.085 2.12418 17.3274 2.38874 17.4003C2.49994 17.4312 2.62132 17.4356 2.73833 17.4356C9.91198 17.4371 17.0864 17.4371 24.26 17.4371C24.7513 17.4371 25.0086 17.2427 25.0072 16.8759C25.0057 16.5069 24.7637 16.3316 24.2535 16.3316C20.6666 16.3316 17.0798 16.3316 13.493 16.3316V16.3323ZM14.4626 18.561H11.3496C11.3692 18.8689 11.4078 19.1591 11.3998 19.4478C11.3918 19.7314 11.3373 20.0135 11.2966 20.3493C12.3672 19.7446 13.3803 19.1731 14.4626 18.5618V18.561ZM13.509 3.00108C13.8019 2.99814 14.0425 2.75655 14.0468 2.46047C14.0512 2.15554 13.7982 1.89849 13.4973 1.90218C13.2081 1.90512 12.9639 2.1526 12.9595 2.445C12.9551 2.75213 13.2044 3.00403 13.509 3.00108Z" fill="#5234AE"/>
<path d="M14.4635 18.5608C13.3812 19.1721 12.3681 19.7437 11.2975 20.3484C11.3382 20.0132 11.3927 19.7304 11.4007 19.4468C11.4087 19.1581 11.3701 18.8679 11.3505 18.5601H14.4635V18.5608Z" fill="white"/>
<path d="M10.5154 6.94273C10.5176 7.24987 10.3133 7.39128 10.0757 7.51134C8.86625 8.12413 7.96646 9.05069 7.35884 10.2696C7.26145 10.4656 7.18949 10.6747 7.10155 10.8758C6.96418 11.191 6.68436 11.3251 6.39654 11.2168C6.1 11.1056 5.96481 10.8014 6.0891 10.4715C6.77012 8.65591 7.97518 7.31836 9.70063 6.46693C10.1069 6.2666 10.5168 6.51481 10.5147 6.94273H10.5154Z" fill="#5234AE"/>
<path d="M16.9775 14.0354C16.6795 14.0295 16.4476 13.7923 16.4476 13.4918C16.4476 13.1891 16.7071 12.9306 17.0036 12.9387C17.2922 12.9468 17.5349 13.1987 17.5349 13.4903C17.5349 13.8004 17.2886 14.0412 16.9775 14.0354Z" fill="#5234AE"/>
</g>
<defs>
<clipPath id="clip0_896_1611">
<rect width="25.2052" height="28.2298" fill="white" transform="translate(0.89743 0.647461)"/>
</clipPath>
</defs>
</svg>
