<svg width="31" height="30" viewBox="0 0 31 30" fill="none" xmlns="http://www.w3.org/2000/svg">
<g clip-path="url(#clip0_896_1619)">
<path d="M15.7904 0.348145C16.3772 0.488138 16.9078 0.719525 17.3012 1.20261C18.1136 2.20069 17.9924 3.61658 16.9998 4.44276C16.8385 4.57695 16.7816 4.70751 16.7889 4.90698C16.8027 5.311 16.7932 5.71648 16.7932 6.15822C16.9297 6.16402 17.0509 6.17417 17.1728 6.17417C20.1601 6.1749 23.1482 6.17417 26.1356 6.17635C26.329 6.17635 26.529 6.17708 26.7151 6.22205C27.2559 6.35116 27.6128 6.84295 27.5968 7.40219C27.5814 7.95636 27.1895 8.42277 26.6385 8.52069C26.4487 8.55405 26.2516 8.55333 26.0575 8.55913C25.8641 8.56493 25.6699 8.56058 25.4334 8.56058C25.4801 8.67664 25.5115 8.76296 25.5502 8.84565C26.8749 11.7413 28.2011 14.6369 29.5244 17.5339C29.5922 17.6826 29.6608 17.7704 29.8506 17.7972C30.2279 17.8502 30.4352 18.2419 30.2688 18.59C29.9988 19.1558 29.7229 19.7223 29.4017 20.2598C29.0594 20.8321 28.5033 21.0453 27.8413 21.0432C25.6809 21.0366 23.5205 21.041 21.36 21.0403C21.2819 21.0403 21.2046 21.0374 21.1265 21.0337C20.528 21.0018 20.0558 20.7356 19.7594 20.225C19.4595 19.7078 19.1923 19.1703 18.9332 18.6314C18.742 18.2332 18.9493 17.8741 19.3784 17.7762C19.4719 17.7551 19.5879 17.6768 19.6259 17.5941C20.9812 14.6485 22.3286 11.6992 23.6766 8.7499C23.6993 8.69985 23.7109 8.64545 23.7336 8.57436H16.7925C16.7925 9.03279 16.7925 9.48323 16.7925 9.93367C16.7925 10.3783 16.6502 10.5908 16.3561 10.5887C16.0619 10.5872 15.9145 10.3689 15.9138 9.93005C15.9138 9.38966 15.9123 8.84927 15.9138 8.30816C15.9152 7.82653 16.0532 7.68798 16.5385 7.68798C19.7302 7.68726 22.9227 7.68798 26.1144 7.68653C26.2399 7.68653 26.3896 7.70829 26.4845 7.64954C26.5881 7.58571 26.6961 7.44064 26.6961 7.33039C26.6961 7.24044 26.5552 7.12366 26.4501 7.06781C26.3655 7.02284 26.2407 7.04895 26.1341 7.04895C22.9716 7.04895 19.8083 7.04895 16.6458 7.04895C16.0247 7.04895 15.9145 6.93797 15.913 6.32287C15.9123 5.89854 15.9086 5.47348 15.905 5.04915C15.905 5.03247 15.8889 5.01651 15.8743 4.9904H15.0802C15.0802 5.12604 15.0802 5.26603 15.0802 5.40603C15.0802 5.77305 15.0854 6.13936 15.0788 6.50639C15.0715 6.87486 14.9138 7.02936 14.5431 7.0475C14.4555 7.05185 14.3679 7.04895 14.2803 7.04895C11.166 7.04895 8.05233 7.04895 4.93798 7.04895C4.8504 7.04895 4.76281 7.04895 4.67523 7.04895C4.45554 7.04895 4.2811 7.11568 4.28256 7.36955C4.28402 7.60602 4.45554 7.67203 4.65771 7.68581C4.74457 7.69161 4.83288 7.68798 4.92047 7.68798C8.0735 7.68798 11.2265 7.68798 14.3796 7.68798C14.9671 7.68798 15.0802 7.79969 15.0802 8.37779C15.0802 13.7157 15.0802 19.0535 15.0802 24.3914C15.0802 24.5154 15.0802 24.6395 15.0802 24.7838H15.9123C15.9123 24.662 15.9123 24.5401 15.9123 24.4182C15.9123 20.4411 15.9123 16.4647 15.9138 12.4876C15.9138 12.3629 15.9138 12.2345 15.9451 12.1155C16.0043 11.8892 16.1677 11.7811 16.4035 11.8044C16.6261 11.8261 16.7546 11.9589 16.7816 12.1772C16.7954 12.2918 16.7911 12.4086 16.7911 12.5239C16.7911 16.4909 16.7911 20.4585 16.7911 24.4255V24.8056C16.9239 24.8056 17.0275 24.8056 17.1304 24.8056C18.0158 24.8056 18.9018 24.8027 19.7872 24.8063C20.8068 24.8099 21.3746 25.3764 21.3805 26.3876C21.3812 26.5696 21.3805 26.7517 21.3805 26.9744C21.606 26.9744 21.8074 26.9707 22.0082 26.9744C22.9074 26.994 23.4759 27.5612 23.4891 28.4534C23.4942 28.8008 23.4971 29.1483 23.4876 29.4957C23.4788 29.8308 23.3146 29.9853 22.9782 29.9991C22.9103 30.002 22.8417 29.9991 22.7738 29.9991C17.918 29.9991 13.0614 29.9991 8.20561 29.9991C7.61952 29.9991 7.50201 29.8838 7.50201 29.3086C7.50201 29.009 7.49544 28.7101 7.50347 28.4106C7.52683 27.5655 8.08956 27.0027 8.93767 26.9736C9.14933 26.9664 9.36172 26.9729 9.61133 26.9729C9.61133 26.743 9.60915 26.5435 9.61133 26.344C9.62301 25.3851 10.1923 24.8136 11.1587 24.8048C12.0542 24.7976 12.949 24.8034 13.8446 24.8034C13.9504 24.8034 14.0555 24.8034 14.181 24.8034V8.58379H7.25094C7.29254 8.68317 7.32612 8.77021 7.3648 8.85508C8.68513 11.7427 10.0069 14.6296 11.3243 17.518C11.3966 17.6761 11.4703 17.7697 11.6696 17.8001C12.0454 17.8567 12.2418 18.2484 12.0717 18.6045C11.8017 19.1703 11.528 19.7383 11.2024 20.2736C10.8631 20.8306 10.3149 21.0468 9.66316 21.0439C8.11583 21.0366 6.56851 21.0417 5.02119 21.0417C4.38839 21.0417 3.75632 21.0366 3.12353 21.0424C2.34184 21.0497 1.78787 20.7008 1.43972 20.0139C1.21711 19.5751 0.987931 19.1391 0.7697 18.6974C0.539062 18.2303 0.71788 17.8973 1.2266 17.7704C1.32659 17.745 1.42585 17.6115 1.47548 17.5049C2.68926 14.8661 3.89646 12.2243 5.10512 9.5826C5.25329 9.2591 5.39999 8.93559 5.57224 8.55841C5.23504 8.55841 4.93944 8.56711 4.64531 8.55696C3.73808 8.52431 3.16513 7.74384 3.47095 6.94958C3.64101 6.50856 3.97237 6.24816 4.45116 6.19303C4.59567 6.17635 4.74238 6.17635 4.88835 6.17635C7.85673 6.17562 10.8244 6.17635 13.7928 6.17635H14.2008C14.2008 5.66425 14.2051 5.18479 14.1956 4.70606C14.1942 4.64368 14.1351 4.56752 14.0811 4.52327C13.311 3.89294 12.9914 3.08925 13.2337 2.12816C13.4804 1.14676 14.1519 0.570828 15.1554 0.379335C15.1729 0.375708 15.1883 0.35975 15.2043 0.349595C15.3992 0.349595 15.5933 0.349595 15.7882 0.349595L15.7904 0.348145ZM2.32797 17.7559H10.4784C9.12013 14.787 7.77498 11.8479 6.40356 8.85145C5.03068 11.8508 3.6848 14.7914 2.32797 17.7559ZM20.5149 17.7639H28.6719C27.3099 14.7892 25.9626 11.8457 24.5919 8.85145C23.2161 11.8595 21.8695 14.8022 20.5149 17.7639ZM8.38734 29.1149H22.6147C22.6147 28.9488 22.6147 28.7965 22.6147 28.6449C22.6147 27.9928 22.468 27.8477 21.8067 27.8477C19.2179 27.8477 16.6298 27.8477 14.0409 27.8462C13.9154 27.8462 13.7869 27.8412 13.6658 27.8129C13.449 27.7614 13.3329 27.6069 13.3439 27.39C13.3556 27.1615 13.4899 27.0164 13.7256 26.986C13.8314 26.9729 13.9395 26.9751 14.046 26.9751C16.0802 26.9751 18.1136 26.9751 20.1477 26.9751H20.5017C20.5017 26.7974 20.5017 26.6726 20.5017 26.5479C20.5017 25.8015 20.3754 25.6782 19.6127 25.6782C16.9465 25.6782 14.2796 25.692 11.6134 25.6716C10.4923 25.6629 10.466 25.853 10.4996 26.8692C10.5003 26.8953 10.5208 26.9207 10.5456 26.9758C10.9134 26.9758 11.2908 26.9707 11.6681 26.9773C11.9717 26.9831 12.1586 27.1448 12.1673 27.3907C12.1768 27.6497 11.9878 27.8238 11.6703 27.8455C11.5929 27.8506 11.5148 27.847 11.4367 27.847C10.6288 27.847 9.82154 27.8441 9.01357 27.8484C8.62966 27.8506 8.42311 28.0124 8.39172 28.3554C8.3691 28.6013 8.38734 28.8516 8.38734 29.1149ZM1.74335 18.6633C1.89078 18.9542 2.04113 19.2117 2.15499 19.4837C2.3703 19.9979 2.74327 20.1858 3.30016 20.1778C4.90368 20.1553 6.50793 20.1698 8.11145 20.1698C8.65594 20.1698 9.20042 20.1698 9.74417 20.1684C10.0456 20.1684 10.3084 20.0661 10.4624 19.8043C10.6755 19.4416 10.8609 19.063 11.0733 18.6633H1.74335ZM29.2565 18.6698H19.9331C20.0915 18.9803 20.2477 19.2574 20.3769 19.546C20.5791 19.9987 20.9163 20.1815 21.414 20.1756C22.7555 20.1597 24.097 20.1698 25.4385 20.1698C26.2553 20.1698 27.0713 20.1677 27.888 20.1706C28.2237 20.172 28.5069 20.0654 28.6762 19.7709C28.877 19.422 29.0536 19.0586 29.2565 18.6705V18.6698ZM15.4999 4.11853C16.2845 4.11853 16.9567 3.46063 16.9582 2.69176C16.9597 1.88589 16.313 1.22945 15.5109 1.22147C14.6993 1.21349 14.0343 1.87864 14.038 2.69538C14.0409 3.46353 14.7146 4.11925 15.4999 4.11853Z" fill="#463EB1"/>
</g>
<defs>
<clipPath id="clip0_896_1619">
<rect width="29.6531" height="29.6531" fill="white" transform="translate(0.673462 0.224121)"/>
</clipPath>
</defs>
</svg>
