<svg width="29" height="27" viewBox="0 0 29 27" fill="none" xmlns="http://www.w3.org/2000/svg">
<g clip-path="url(#clip0_896_1666)">
<g clip-path="url(#clip1_896_1666)">
<path d="M14.0994 26.5365C7.07044 26.5084 1.46227 20.824 1.49736 13.7657C1.53174 6.88136 7.25076 1.24255 14.171 1.27553C15.8319 1.2816 17.4753 1.61504 19.0072 2.2568C20.5392 2.89855 21.9296 3.83602 23.099 5.0156C24.2684 6.19518 25.1938 7.59373 25.8223 9.13126C26.4508 10.6688 26.77 12.3152 26.7618 13.9762C26.7288 20.9096 21.0288 26.5632 14.0994 26.5365ZM25.9199 13.9502C25.9409 7.43219 20.6674 2.13651 14.1324 2.11476C7.68788 2.0923 2.36738 7.37255 2.33791 13.8071C2.30774 20.3174 7.47949 25.6236 13.9921 25.6867C15.5482 25.708 17.093 25.4203 18.5372 24.8404C19.9814 24.2605 21.2962 23.3999 22.4055 22.3084C23.5148 21.2168 24.3967 19.9161 24.9999 18.4814C25.6031 17.0467 25.9158 15.5066 25.9199 13.9502Z" fill="#2C69BF"/>
<path d="M3.18465 13.5912C3.25481 9.37547 6.01715 5.36038 9.88315 3.81385C10.361 3.62229 10.8563 3.47283 11.3496 3.32267C11.7081 3.2118 11.9403 3.31565 12.0105 3.583C12.0807 3.83982 11.9193 4.03348 11.5537 4.13312C9.11486 4.79833 7.17063 6.16803 5.74912 8.25627C4.63212 9.89894 4.07081 11.7304 4.0231 13.7133C4.02675 13.792 4.02441 13.8708 4.01608 13.9491C3.97609 14.1758 3.83927 14.3091 3.60703 14.321C3.50053 14.3247 3.39683 14.2865 3.31814 14.2146C3.23946 14.1427 3.19204 14.0429 3.18605 13.9365C3.1797 13.8215 3.17923 13.7063 3.18465 13.5912Z" fill="#2C69BF"/>
<path d="M6.97009 13.9059C6.97121 13.3479 7.19333 12.8131 7.58783 12.4186C7.98234 12.024 8.51708 11.8019 9.075 11.8008C9.62999 11.8008 10.1625 12.0199 10.5567 12.4106C10.9509 12.8013 11.1749 13.3319 11.1799 13.8869C11.1815 14.1658 11.1278 14.4423 11.022 14.7003C10.9162 14.9583 10.7603 15.1929 10.5633 15.3904C10.3664 15.5878 10.1323 15.7443 9.87457 15.8509C9.61683 15.9574 9.34054 16.0118 9.06167 16.0109C8.50607 16.0063 7.97473 15.7826 7.5831 15.3885C7.19147 14.9943 6.97118 14.4615 6.97009 13.9059ZM10.3379 13.9171C10.341 13.5857 10.2137 13.2664 9.98346 13.028C9.75323 12.7896 9.43855 12.6513 9.10727 12.6428C8.94069 12.6396 8.77509 12.6692 8.61997 12.73C8.46485 12.7908 8.32324 12.8817 8.20326 12.9973C8.08328 13.1129 7.98728 13.2511 7.92076 13.4038C7.85423 13.5566 7.81848 13.721 7.81556 13.8876C7.81193 14.22 7.93893 14.5405 8.16924 14.7801C8.39954 15.0197 8.71472 15.1594 9.04693 15.1689C9.21378 15.172 9.3796 15.1421 9.53487 15.0809C9.69014 15.0197 9.83181 14.9285 9.95175 14.8125C10.0717 14.6964 10.1675 14.5579 10.2338 14.4047C10.3001 14.2515 10.3355 14.0868 10.3379 13.9199V13.9171Z" fill="#2C69BF"/>
<path d="M14.1183 16.0109C13.8409 16.0098 13.5665 15.9539 13.3108 15.8464C13.0551 15.7389 12.8232 15.5819 12.6284 15.3845C12.4336 15.187 12.2797 14.953 12.1756 14.6959C12.0715 14.4388 12.0192 14.1636 12.0218 13.8862C12.0281 13.3317 12.2525 12.8019 12.6464 12.4116C13.0404 12.0213 13.5722 11.8019 14.1267 11.8008C14.685 11.8008 15.2204 12.0226 15.6151 12.4173C16.0099 12.8121 16.2316 13.3476 16.2316 13.9059C16.23 14.4651 16.0065 15.0008 15.6103 15.3955C15.2141 15.7902 14.6775 16.0115 14.1183 16.0109ZM14.1379 12.6428C13.9713 12.6424 13.8062 12.6748 13.6521 12.7383C13.498 12.8018 13.3579 12.8951 13.2399 13.0128C13.1219 13.1305 13.0283 13.2704 12.9645 13.4244C12.9007 13.5783 12.8679 13.7434 12.868 13.9101C12.8704 14.2425 13.0032 14.5607 13.2378 14.7961C13.4724 15.0315 13.7901 15.1654 14.1225 15.1689C14.2893 15.1689 14.4545 15.136 14.6086 15.072C14.7626 15.008 14.9025 14.9142 15.0203 14.796C15.138 14.6778 15.2312 14.5375 15.2946 14.3832C15.358 14.2289 15.3903 14.0636 15.3897 13.8967C15.3873 13.5653 15.2547 13.248 15.0205 13.0135C14.7864 12.7789 14.4694 12.6458 14.1379 12.6428Z" fill="#2C69BF"/>
<path d="M21.2876 13.9187C21.2821 14.4782 21.055 15.0126 20.656 15.4048C20.2571 15.7971 19.719 16.0151 19.1596 16.0112C18.8827 16.0082 18.6091 15.9505 18.3545 15.8416C18.0999 15.7326 17.8693 15.5745 17.6759 15.3763C17.4825 15.1781 17.3302 14.9436 17.2275 14.6864C17.1249 14.4292 17.074 14.1542 17.0778 13.8773C17.0863 13.3182 17.3166 12.7853 17.7179 12.396C18.1192 12.0066 18.6587 11.7926 19.2178 11.801C19.7722 11.8103 20.3005 12.0378 20.688 12.4343C21.0756 12.8309 21.291 13.3643 21.2876 13.9187ZM19.1596 15.1691C19.3263 15.1715 19.4918 15.1409 19.6466 15.0792C19.8015 15.0175 19.9426 14.9258 20.062 14.8095C20.1814 14.6931 20.2767 14.5544 20.3424 14.4012C20.4081 14.248 20.443 14.0833 20.445 13.9166C20.4469 13.5843 20.3181 13.2646 20.0865 13.0263C19.8548 12.7881 19.5388 12.6504 19.2066 12.6431C18.8747 12.6388 18.5544 12.7648 18.3142 12.9939C18.0741 13.2231 17.9333 13.5372 17.9219 13.8689C17.9175 14.0356 17.9461 14.2016 18.006 14.3572C18.0658 14.5129 18.1559 14.6552 18.2708 14.776C18.3858 14.8968 18.5235 14.9937 18.676 15.0612C18.8285 15.1286 18.9929 15.1653 19.1596 15.1691Z" fill="#2C69BF"/>
<path d="M13.3424 3.79729C13.0673 3.83588 12.8828 3.69344 12.8604 3.45697C12.8351 3.20085 12.9881 3.01911 13.2757 2.99525C13.5634 2.9714 13.837 2.95877 14.1121 2.96017C14.1689 2.95686 14.2259 2.96537 14.2793 2.98515C14.3327 3.00493 14.3815 3.03556 14.4225 3.07511C14.4635 3.11467 14.4958 3.16228 14.5175 3.21495C14.5392 3.26763 14.5498 3.32423 14.5485 3.38118C14.5481 3.43598 14.5369 3.49015 14.5155 3.54059C14.4942 3.59104 14.463 3.63675 14.4239 3.6751C14.3847 3.71345 14.3384 3.74368 14.2875 3.76405C14.2367 3.78442 14.1823 3.79452 14.1275 3.79378C13.8658 3.80571 13.6041 3.79729 13.3424 3.79729Z" fill="#2C69BF"/>
</g>
</g>
<defs>
<clipPath id="clip0_896_1666">
<rect width="28.9118" height="25.9465" fill="white" transform="translate(0.0440674 0.930664)"/>
</clipPath>
<clipPath id="clip1_896_1666">
<rect width="25.2645" height="25.2645" fill="white" transform="translate(1.49731 1.27197)"/>
</clipPath>
</defs>
</svg>
