<svg width="31" height="28" viewBox="0 0 31 28" fill="none" xmlns="http://www.w3.org/2000/svg">
<g clip-path="url(#clip0_896_1631)">
<path d="M0.673401 15.0616C0.814078 14.7985 0.919948 14.5067 1.10413 14.2802C1.39346 13.9232 1.80897 13.7824 2.26363 13.778C2.64941 13.7744 3.03591 13.7751 3.42168 13.7773C4.44485 13.7817 5.05977 14.3711 5.12286 15.4047C5.12576 15.4531 5.12866 15.5015 5.13301 15.5704C5.78346 15.6012 6.43246 15.632 7.10249 15.6642V11.9534C6.98139 12.0663 6.89437 12.1462 6.8088 12.2276C6.49192 12.5282 6.17938 12.8324 5.85887 13.1293C5.18087 13.7568 4.27662 13.7451 3.6849 13.1058C3.10842 12.4834 3.14323 11.5627 3.7944 10.9315C4.85383 9.90525 5.92486 8.89216 6.99734 7.88053C7.14454 7.74124 7.20038 7.59903 7.19821 7.39744C7.18588 6.18788 7.18515 4.97758 7.18298 3.76729C7.18153 3.07748 7.41792 2.84143 8.1068 2.83923C8.74348 2.83703 9.38087 2.83703 10.0175 2.8363C10.7369 2.8363 10.9595 3.06135 10.966 3.80028C10.966 3.86772 10.966 3.93516 10.966 4.08104C11.077 3.98061 11.143 3.9227 11.2068 3.86259C12.2046 2.91254 13.2024 1.96248 14.1994 1.01243C14.9884 0.260303 15.7817 0.261036 16.5714 1.0095C18.5285 2.86489 20.4878 4.71808 22.4457 6.57274C22.474 6.59913 22.503 6.62478 22.5306 6.65264C22.7735 6.89162 22.8112 7.15186 22.6321 7.34246C22.453 7.53232 22.1984 7.50813 21.9454 7.26915C19.965 5.39616 17.9861 3.52098 16.0065 1.648C15.5264 1.19423 15.2444 1.19716 14.7679 1.6502C11.3395 4.91527 7.91102 8.17962 4.48401 11.4462C4.38684 11.5393 4.29185 11.6412 4.22151 11.7548C4.07793 11.9842 4.12071 12.3163 4.302 12.5157C4.49561 12.729 4.82482 12.7972 5.06992 12.6521C5.20915 12.5692 5.33387 12.4563 5.4528 12.3434C8.60063 9.34739 11.7477 6.34915 14.8941 3.35091C15.3321 2.93379 15.4438 2.93233 15.8803 3.34505C19.0644 6.36015 22.2485 9.37451 25.4318 12.3896C25.6262 12.5736 25.8249 12.7364 26.1178 12.685C26.5964 12.6015 26.8241 12.092 26.5573 11.6837C26.4891 11.5796 26.3977 11.4887 26.3071 11.4022C25.5899 10.7204 24.8699 10.0416 24.1527 9.36059C24.0758 9.28728 23.9968 9.21324 23.9351 9.12747C23.8032 8.94274 23.8242 8.75434 23.9758 8.596C24.1179 8.44645 24.2941 8.423 24.4783 8.52562C24.5203 8.54908 24.5609 8.57767 24.5957 8.61066C25.4326 9.40604 26.2839 10.1868 27.0989 11.0034C27.6725 11.5781 27.6609 12.4827 27.1287 13.0677C26.5964 13.6527 25.7132 13.7326 25.0903 13.2187C24.6871 12.8866 24.3216 12.5076 23.9388 12.1506C23.8713 12.0876 23.8003 12.0289 23.7046 11.9454V19.8654C23.8322 19.7819 23.9185 19.7276 24.0033 19.6697C25.1331 18.9051 26.2592 18.1339 27.3941 17.3767C28.3955 16.7088 29.592 16.9955 30.1191 18.0152C30.4774 18.7079 30.3773 19.5737 29.8066 20.1213C28.9111 20.9804 27.9821 21.8051 27.0656 22.6423C26.1555 23.4728 25.2208 24.2763 24.3383 25.1354C23.4072 26.0422 22.3137 26.4967 21.0433 26.6653C18.4052 27.0158 15.773 27.4131 13.1422 27.8133C12.3025 27.9409 11.5135 27.8962 10.7093 27.5714C8.87618 26.831 7.01982 26.1478 5.14679 25.4309C5.12648 25.5342 5.10545 25.6244 5.09095 25.716C4.97565 26.4418 4.43252 26.9703 3.70086 27.0165C3.19181 27.0487 2.67841 27.0487 2.16791 27.0253C1.44277 26.9923 0.972883 26.5957 0.737938 25.9059C0.72271 25.8619 0.696605 25.8223 0.674851 25.7805C0.674851 25.3898 0.674851 24.9998 0.674851 24.6091C0.796675 24.3987 0.959106 24.2506 1.21653 24.3283C1.49063 24.4112 1.52616 24.6465 1.52616 24.8928C1.52616 25.0585 1.52254 25.2249 1.52762 25.3905C1.54357 25.9088 1.80679 26.1757 2.32382 26.1859C2.69001 26.1933 3.05693 26.1903 3.42385 26.1867C4.00252 26.1815 4.26792 25.911 4.26864 25.3209C4.27082 24.365 4.26864 23.4083 4.26864 22.4524C4.26864 20.1403 4.26937 17.8275 4.26864 15.5154C4.26864 14.8996 4.01774 14.6482 3.40718 14.6445C3.09827 14.6423 2.78936 14.6445 2.48117 14.6445C1.74661 14.6445 1.52689 14.8637 1.52689 15.5975C1.52689 17.6853 1.52689 19.7738 1.52689 21.8616C1.52689 22.1035 1.50949 22.3417 1.24046 22.4422C0.988111 22.5367 0.82278 22.3886 0.674851 22.209C0.674851 19.828 0.674851 17.4463 0.674851 15.0653L0.673401 15.0616ZM5.14026 16.4713C5.13228 16.5344 5.12431 16.5725 5.12431 16.6099C5.12358 19.1756 5.12576 21.7421 5.11778 24.3078C5.11778 24.5109 5.23163 24.5475 5.36868 24.5996C7.36861 25.3642 9.3642 26.1419 11.3728 26.8831C11.7202 27.0114 12.135 27.0641 12.5004 27.0143C15.414 26.6155 18.3218 26.1793 21.2333 25.7651C22.1085 25.6405 22.8743 25.3136 23.5341 24.7059C25.0388 23.3189 26.5587 21.9495 28.0721 20.5728C28.4448 20.2334 28.8248 19.9013 29.1844 19.548C29.4875 19.2504 29.5528 18.8127 29.3867 18.4403C29.2192 18.0643 28.8501 17.8216 28.4296 17.8788C28.2113 17.9089 27.9851 18.01 27.7994 18.1347C25.9191 19.3955 24.0483 20.6718 22.1658 21.929C21.9961 22.0419 21.7539 22.1101 21.5523 22.0969C19.9933 21.9935 18.4357 21.8718 16.8788 21.7413C14.8122 21.5683 12.747 21.3836 10.681 21.2018C10.3598 21.1732 10.1698 20.9929 10.1814 20.7451C10.1938 20.4761 10.4106 20.3148 10.7434 20.3427C11.4453 20.4013 12.1466 20.4658 12.8478 20.5288C14.942 20.7158 17.0362 20.9042 19.1311 21.0896C19.2522 21.1006 19.3747 21.0911 19.4966 21.0911C19.4973 20.174 18.8287 19.3911 17.9404 19.2797C16.7635 19.1316 15.5866 18.9784 14.4054 18.8721C12.7325 18.7211 11.1524 18.3113 9.68398 17.4492C8.29462 16.6333 6.7595 16.3944 5.14244 16.4735L5.14026 16.4713ZM12.6215 17.8018C12.6215 17.601 12.6215 17.4962 12.6215 17.3921C12.6193 15.9384 12.6157 14.4855 12.6164 13.0318C12.6164 12.4571 12.9 12.133 13.4141 12.1301C14.736 12.122 16.0572 12.1264 17.3792 12.1228C17.7265 12.122 17.9774 12.2826 18.1108 12.5941C18.1725 12.7393 18.1783 12.9167 18.179 13.0794C18.1877 14.7765 18.1899 16.4743 18.1935 18.1713C18.1935 18.3172 18.1739 18.4484 18.3741 18.5085C19.5843 18.8699 20.2137 19.7217 20.3566 20.9658C20.3733 21.1102 20.3972 21.1893 20.5669 21.2062C21.5734 21.3074 21.5726 21.3125 22.4102 20.7436C22.482 20.6945 22.5494 20.6359 22.627 20.5985C22.8076 20.512 22.854 20.3764 22.8532 20.177C22.8438 17.241 22.8409 14.3044 22.8431 11.3685C22.8431 11.1749 22.7815 11.0459 22.6437 10.9162C20.2812 8.68617 17.9237 6.45105 15.5649 4.21739C15.5112 4.16608 15.4539 4.11916 15.3937 4.06565C15.335 4.11476 15.2886 4.14922 15.2473 4.1888C12.8659 6.45544 10.4845 8.72135 8.10971 10.9946C8.02704 11.0738 7.9741 11.2277 7.97338 11.3472C7.96468 12.6051 7.96903 13.8638 7.97048 15.1225C7.97048 15.3651 7.97048 15.607 7.97048 15.8629C9.00815 16.1011 9.9095 16.604 10.8275 17.0783C11.3786 17.3635 11.9798 17.5475 12.6208 17.8018H12.6215ZM17.3212 18.3392V12.99H13.4794V17.8913C14.7636 18.0408 16.0406 18.1896 17.3212 18.3392ZM8.04009 6.87696C8.74058 6.21133 9.39175 5.59409 10.0393 4.97392C10.077 4.938 10.1089 4.87495 10.1096 4.82437C10.1154 4.45784 10.1125 4.09131 10.1125 3.71964H8.04009V6.87696Z" fill="#3949B4"/>
</g>
<defs>
<clipPath id="clip0_896_1631">
<rect width="29.6531" height="27.4291" fill="white" transform="translate(0.673462 0.447754)"/>
</clipPath>
</defs>
</svg>
