<svg width="13" height="15" viewBox="0 0 13 15" fill="none" xmlns="http://www.w3.org/2000/svg">
<g clip-path="url(#clip0_1371_293)">
<path d="M1.02594 15.0021C0.750188 14.9278 0.494054 14.8221 0.299838 14.5975C0.0806243 14.3437 -0.000139079 14.0479 0.000245507 13.7195C0.000245507 11.523 0.000245507 9.32648 0.000245507 7.12998C0.000245507 6.0416 0.000245507 4.95284 0.000245507 3.86446C0.000245507 3.25989 0.346373 2.80839 0.918637 2.66455C1.03752 2.63812 1.15917 2.62624 1.28092 2.62917C3.54151 2.62686 5.80185 2.62686 8.06193 2.62917C8.69612 2.62917 9.14147 2.94799 9.29876 3.51872C9.33083 3.64642 9.3457 3.77782 9.34299 3.90946C9.3453 7.17844 9.34299 10.4501 9.34799 13.7202C9.34799 14.3702 8.94879 14.8848 8.34268 14.9863C8.33461 14.9863 8.32768 14.9975 8.31999 15.0032L1.02594 15.0021ZM0.825183 8.80601V11.6616C0.825183 12.35 0.825183 13.0382 0.825183 13.7264C0.825183 13.9037 0.86864 14.0625 1.04709 14.1341C1.13497 14.1628 1.22742 14.1751 1.31976 14.1702C3.55036 14.172 5.78172 14.172 8.01386 14.1702C8.39614 14.1702 8.51382 14.0525 8.51382 13.6737C8.51382 10.4324 8.51382 7.191 8.51382 3.94946C8.51382 3.57448 8.39845 3.45642 8.02732 3.45642H1.31976C0.941713 3.45642 0.825183 3.57448 0.825183 3.95638V8.80601Z" fill="#0026BE"/>
<path d="M12.0124 6.19779C12.0124 7.83869 12.0124 9.47882 12.0124 11.1182C12.0124 11.6243 11.8098 12.0223 11.3448 12.245C11.1837 12.3219 10.9918 12.3531 10.8106 12.3669C10.6033 12.3827 10.4441 12.2181 10.4183 12.0089C10.4059 11.9136 10.4279 11.8171 10.4804 11.7367C10.5328 11.6562 10.6123 11.5971 10.7045 11.5701C10.7324 11.5613 10.761 11.5545 10.7898 11.5497C11.0914 11.5005 11.1856 11.3959 11.1856 11.094C11.1856 7.82344 11.1856 4.55292 11.1856 1.2824C11.1856 0.967041 11.0464 0.829744 10.7283 0.829359C8.46823 0.829359 6.20776 0.829359 3.94691 0.829359C3.65655 0.829359 3.53848 0.932044 3.4931 1.21394C3.45118 1.47546 3.2685 1.62661 3.03159 1.59584C2.78777 1.56353 2.6447 1.36509 2.67393 1.09818C2.74546 0.452081 3.21927 0.00596108 3.86961 0.00403815C6.18404 -0.00134605 8.49823 -0.00134605 10.8122 0.00403815C11.5163 0.00634567 12.0105 0.529767 12.0117 1.2474C12.014 2.89779 12.0142 4.54792 12.0124 6.19779Z" fill="#0026BE"/>
</g>
<defs>
<clipPath id="clip0_1371_293">
<rect width="12.0129" height="15" fill="white"/>
</clipPath>
</defs>
</svg>
