<svg width="35" height="35" viewBox="0 0 35 35" fill="none" xmlns="http://www.w3.org/2000/svg">
<path d="M33.3298 33.4008C33.628 33.4008 33.8587 33.3909 34.0923 33.4008C34.5804 33.4276 34.9144 33.7487 34.9224 34.1852C34.9303 34.6216 34.5874 34.9665 34.0804 34.9974C33.9809 35.0033 33.8815 34.9974 33.7821 34.9974H1.15618C1.04484 34.9974 0.932503 34.9974 0.821162 34.9974C0.336033 34.9626 0.00300234 34.6385 1.99873e-05 34.2021C-0.00296237 33.7656 0.328079 33.4316 0.812214 33.4018C1.05677 33.3859 1.30231 33.4018 1.5926 33.4018V21.7776C1.5926 20.9157 1.81727 20.6841 2.66326 20.6841H10.0665C10.8617 20.6841 11.1172 20.9395 11.1172 21.7309C11.1172 25.4588 11.1172 29.1864 11.1172 32.9137V33.3779H12.6989V17.0098C12.6989 16.1539 12.9305 15.9163 13.7705 15.9163H21.1767C21.972 15.9163 22.2265 16.1648 22.2265 16.9581V33.3779H23.8081V12.3186C23.8081 12.1824 23.8022 12.0452 23.8151 11.909C23.8618 11.4427 24.1511 11.1505 24.6193 11.1495C27.2604 11.1428 29.9018 11.1428 32.5435 11.1495C33.0316 11.1495 33.3079 11.4567 33.3298 11.9547C33.3368 12.0909 33.3298 12.2281 33.3298 12.3643V33.3998V33.4008ZM31.7392 12.749H25.4375V33.368H31.7382L31.7392 12.749ZM14.3064 17.5208V33.3779H20.622V17.5208H14.3064ZM3.19511 22.2836V33.3779H9.48689V22.2836H3.19511Z" fill="white"/>
<path d="M32.0131 1.59995C30.6353 1.59995 29.3598 1.59995 28.0853 1.59995C27.9244 1.60517 27.7634 1.59284 27.6052 1.56317C27.431 1.52617 27.2746 1.43068 27.1622 1.29256C27.0497 1.15444 26.9879 0.982 26.9869 0.803888C26.986 0.625775 27.046 0.452705 27.1571 0.313419C27.2681 0.174134 27.4234 0.0770162 27.5972 0.0381961C27.7306 0.0101369 27.8666 -0.00253786 28.0028 0.000419939C29.9612 0.000419939 31.9203 0.000419939 33.8801 0.000419939C34.738 0.000419939 35.0462 0.404032 34.8374 1.24008C34.3344 3.2492 33.8353 5.2593 33.3263 7.26742C33.1852 7.82413 32.7408 8.0816 32.2736 7.90366C31.864 7.74758 31.6771 7.37379 31.7914 6.90954C32.0897 5.6828 32.3998 4.45705 32.7249 3.1468C32.5867 3.24621 32.5032 3.30188 32.4267 3.3665C26.3384 8.58204 19.2809 12.5451 11.6586 15.0285C8.18451 16.1616 4.61644 16.983 0.99664 17.483C0.480693 17.5545 0.0840392 17.2841 0.0114687 16.809C-0.0571255 16.3666 0.231168 15.9918 0.749104 15.9143C3.20174 15.566 5.63188 15.0744 8.02704 14.442C16.9078 12.0561 24.8256 7.84765 31.7805 1.81667C31.8332 1.77492 31.8829 1.72323 32.0131 1.59995Z" fill="white"/>
</svg>
