<svg width="44" height="43" viewBox="0 0 44 43" fill="none" xmlns="http://www.w3.org/2000/svg">
<path d="M12.438 43C11.5516 42.7969 10.9053 42.2381 10.3061 41.593C9.91677 41.1711 9.49263 40.7828 9.09319 40.3711C8.71169 39.9783 8.68813 39.4835 9.01801 39.1368C9.34789 38.7901 9.87637 38.7834 10.2814 39.1783C10.8537 39.7393 11.4035 40.3093 11.978 40.8681C12.5872 41.4662 13.1931 41.4628 13.8091 40.8603C14.2187 40.4586 14.6226 40.0513 15.0265 39.644C15.6841 38.9808 15.6695 38.4501 15.0108 37.787C13.5028 36.2689 12.0083 34.7373 10.5002 33.218C9.17921 31.8873 7.85221 30.5618 6.51922 29.2415C6.32151 29.0447 6.11246 28.8596 5.89313 28.6872C5.55651 28.4247 4.96183 28.4482 4.60839 28.777C4.04737 29.301 3.4942 29.8407 2.97358 30.4062C2.54496 30.873 2.6033 31.4912 3.08578 31.9872C3.67149 32.5897 4.27402 33.1743 4.86421 33.7712C5.13575 34.0461 5.21654 34.3715 5.05272 34.7328C4.89788 35.0761 4.61288 35.259 4.24821 35.213C4.02984 35.1814 3.82589 35.0853 3.66251 34.937C3.01285 34.3199 2.37328 33.6915 1.75504 33.0396C1.2656 32.5259 0.991568 31.8442 0.989272 31.1346C0.986977 30.4251 1.25659 29.7416 1.7427 29.2247C2.27454 28.6502 2.82771 28.0914 3.40668 27.5641C4.2168 26.8269 5.16941 26.6507 6.22188 26.9559C6.35765 26.9963 6.57869 27.0042 6.66173 26.9245C7.49877 26.1189 8.31674 25.2931 9.13807 24.4717C9.19642 24.4145 9.25027 24.3505 9.30077 24.2911C7.6177 22.5418 8.27522 20.089 10.2758 19.2655C9.19866 17.4141 10.0896 15.3114 12.1148 14.7369C11.9387 13.9402 12.0026 13.166 12.4369 12.4446C12.6355 12.109 12.8984 11.8159 13.2105 11.5821C13.5226 11.3484 13.8778 11.1786 14.2557 11.0824C14.2793 10.5483 14.2288 10.0355 14.3365 9.55867C14.6978 7.96425 16.244 7.04642 17.8743 7.39089C18.0522 7.42073 18.2349 7.38355 18.3871 7.28654C19.1231 6.77264 19.9299 6.8467 20.7344 6.99144C22.5498 7.3202 24.3597 7.68149 26.1751 8.01362C26.5118 8.07645 26.8742 8.03943 27.2164 8.09666C28.8995 8.37829 29.934 9.82796 29.6658 11.511C29.6524 11.5941 29.6467 11.6782 29.6344 11.7994C30.4198 12.0238 31.074 12.4468 31.5071 13.1638C31.9402 13.8808 32.0176 14.6572 31.8347 15.4606C33.63 16.0598 34.3661 17.3838 34.0788 19.1869C35.193 19.5044 35.9695 20.1968 36.2645 21.3356C36.5596 22.4745 36.2062 23.4305 35.3759 24.2776L37.436 26.3354C37.5094 26.3999 37.578 26.4697 37.6413 26.5441C37.9454 26.957 38.2618 27.0558 38.8015 26.8695C39.7496 26.543 40.6641 26.7798 41.4136 27.4608C42.0038 27.9972 42.5689 28.5582 43.109 29.1439C44.1289 30.2558 44.1301 31.9097 43.0664 32.9835C40.0354 36.0497 36.9864 39.0994 33.9195 42.1327C32.8109 43.2289 31.1144 43.1907 29.9845 42.1046C29.4807 41.6188 28.9814 41.1273 28.4989 40.6202C27.645 39.7225 27.4296 38.6813 27.8885 37.5267C27.9794 37.3023 27.9278 37.1789 27.7763 37.0251C26.7665 36.0209 25.7566 35.0055 24.7389 34.0057C24.6346 33.9016 24.4982 33.8356 24.3518 33.8183C23.4441 33.7802 22.5352 33.7634 21.6264 33.7454C21.319 33.7387 20.9992 33.6983 20.7074 33.7678C20.3966 33.8408 20.0499 33.9586 19.8266 34.1707C18.8707 35.0683 17.9573 36.0231 17.0215 36.9455C16.8476 37.116 16.8128 37.2394 16.9262 37.4773C17.4513 38.5792 17.2516 39.7719 16.4055 40.6594C15.913 41.1756 15.4383 41.7209 14.8818 42.1596C14.433 42.5119 13.872 42.7206 13.3659 43H12.438ZM7.93524 28.0769L15.7043 35.8851C16.667 34.9202 17.6611 33.9361 18.6384 32.9353C18.882 32.6739 19.1755 32.464 19.5016 32.3179C19.8276 32.1718 20.1797 32.0926 20.5369 32.0848C21.3192 32.0556 22.1024 32.0702 22.8831 32.1285C24.2486 32.2497 25.4638 32.0769 26.3771 30.8943C26.4469 30.7961 26.5378 30.7147 26.643 30.656C26.7482 30.5973 26.8652 30.5627 26.9854 30.5549C27.1057 30.5471 27.2261 30.5661 27.3381 30.6106C27.4501 30.6552 27.5507 30.7241 27.6327 30.8124C27.9906 31.1714 27.9547 31.6416 27.5665 32.0803C27.2052 32.4898 26.8686 32.9207 26.5566 33.2943L29.1261 35.8964L36.7639 28.2306L34.1114 25.5534C33.9386 25.7172 33.7489 25.9248 33.5313 26.0987C33.4431 26.1742 33.34 26.2301 33.2286 26.2628C33.1172 26.2955 33.0002 26.3041 32.8852 26.2882C32.7703 26.2723 32.66 26.2322 32.5617 26.1705C32.4634 26.1088 32.3793 26.027 32.315 25.9304C32.067 25.5736 32.1141 25.1517 32.4676 24.7915C33.0847 24.162 33.7254 23.5573 34.3302 22.9143C34.5532 22.6855 34.6769 22.3778 34.6744 22.0583C34.6718 21.7387 34.5433 21.433 34.3167 21.2077C34.0948 20.9786 33.7923 20.8449 33.4735 20.835C33.1547 20.8252 32.8446 20.9399 32.6089 21.155C32.3655 21.3637 32.1489 21.6038 31.9178 21.8282C31.4768 22.2546 30.9853 22.2905 30.6218 21.9258C30.2583 21.5612 30.3088 21.0574 30.734 20.6287C31.1952 20.1597 31.6754 19.7087 32.1197 19.2251C32.3394 18.9941 32.4606 18.6866 32.4574 18.3678C32.4543 18.049 32.3271 17.7439 32.1029 17.5173C31.6249 17.0303 30.8967 17.0135 30.3649 17.4904C30.1045 17.7238 29.8667 17.9818 29.6165 18.2264C29.1676 18.6663 28.6481 18.7078 28.2891 18.3386C27.93 17.9695 27.9828 17.4814 28.4125 17.0438C28.9129 16.5344 29.4347 16.0463 29.916 15.5201C30.0275 15.4029 30.1145 15.2646 30.1717 15.1134C30.229 14.9621 30.2554 14.8009 30.2495 14.6393C30.2435 14.4776 30.2053 14.3188 30.137 14.1722C30.0688 14.0256 29.9719 13.894 29.8521 13.7854C29.6188 13.5677 29.3103 13.4488 28.9913 13.4536C28.6723 13.4584 28.3675 13.5866 28.141 13.8112C27.8739 14.0581 27.6282 14.3273 27.3656 14.5787C26.9516 14.977 26.4478 15.0073 26.0966 14.664C25.7454 14.3206 25.76 13.7944 26.1841 13.3669C26.6655 12.8788 27.1547 12.3986 27.6428 11.9082C27.788 11.7753 27.8986 11.6089 27.9651 11.4236C28.0316 11.2382 28.0519 11.0395 28.0243 10.8445C28.0028 10.6198 27.9174 10.4059 27.7782 10.2282C27.639 10.0504 27.4519 9.91622 27.2388 9.84143C27.0165 9.7494 26.7714 9.72738 26.5362 9.7783C26.3011 9.82922 26.087 9.95067 25.9227 10.1264C25.2001 10.8288 24.4999 11.5537 23.7762 12.2583C23.5799 12.4491 23.5339 12.5837 23.664 12.8586C23.8364 13.2308 23.928 13.6353 23.9329 14.0454C23.9377 14.4556 23.8558 14.8621 23.6924 15.2383C23.529 15.6145 23.2878 15.9519 22.9847 16.2283C22.6816 16.5046 22.3235 16.7137 21.9338 16.8418C21.6324 16.923 21.3267 16.9878 21.0182 17.036C21.0025 17.1022 20.9779 17.1818 20.9666 17.2604C20.7321 18.8245 19.8648 19.7008 18.2962 19.9218C18.046 19.9566 18.0213 20.0801 17.9988 20.2798C17.9364 20.9402 17.6476 21.5588 17.1814 22.0307C16.7152 22.5026 16.1002 22.7989 15.4406 22.8695C15.3205 22.8852 15.2027 22.9132 15.1118 22.93C15.0645 23.2323 15.0015 23.5319 14.9233 23.8277C14.3892 25.4939 12.5255 26.2962 10.9064 25.587C10.7807 25.5309 10.5507 25.4995 10.4778 25.5702C9.5925 26.4072 8.73975 27.2735 7.93524 28.0791V28.0769ZM42.2697 31.0435C42.0913 30.7316 41.9757 30.4264 41.7727 30.1986C41.3407 29.7285 40.8761 29.2797 40.4094 28.8309C39.8484 28.2923 39.22 28.2889 38.668 28.8387C35.696 31.7994 32.7282 34.7638 29.7646 37.732C29.2136 38.2829 29.2103 38.9203 29.7444 39.4712C30.1932 39.9327 30.6487 40.3868 31.111 40.8333C31.6586 41.3618 32.2858 41.382 32.8188 40.8524C35.8109 37.8745 38.797 34.8888 41.7771 31.8952C41.9881 31.6853 42.0891 31.3622 42.2663 31.0458L42.2697 31.0435ZM17.8664 18.2522C18.5845 18.2119 18.9761 17.9796 19.1747 17.4893C19.2787 17.2642 19.3093 17.0123 19.2624 16.7689C19.2155 16.5255 19.0934 16.303 18.9133 16.1327C17.9035 15.1072 16.8846 14.0861 15.8524 13.0808C15.3216 12.5646 14.5732 12.5837 14.0852 13.0808C13.5971 13.5778 13.6027 14.315 14.1278 14.8469C15.1174 15.8567 16.1116 16.8665 17.1315 17.8371C17.3626 18.0593 17.7105 18.1715 17.8631 18.2522H17.8664ZM20.9319 15.3664C21.6724 15.2979 22.2446 14.747 22.2256 14.0513C22.2166 13.6754 22.0977 13.4129 21.6746 13.2289C19.9456 12.4726 18.6709 11.2339 17.936 9.46554C17.85 9.28712 17.6991 9.14827 17.5141 9.07732C17.2595 8.994 16.9841 8.9997 16.7331 9.09348C16.4821 9.18727 16.2705 9.36356 16.1329 9.59346C15.9787 9.83075 15.9122 10.1145 15.945 10.3956C15.9778 10.6766 16.1077 10.9374 16.3124 11.1329C17.5702 12.4042 18.8325 13.6721 20.1184 14.9175C20.3293 15.1262 20.6569 15.2194 20.9319 15.3664ZM16.3696 19.9207C16.2664 19.6829 16.2182 19.3922 16.051 19.2161C15.2207 18.3454 14.378 17.4859 13.5006 16.6634C13.0518 16.2449 12.3314 16.3268 11.8927 16.7442C11.454 17.1616 11.3395 17.8887 11.7592 18.3431C12.5928 19.2464 13.4692 20.1126 14.3679 20.9519C14.7326 21.2885 15.2263 21.2762 15.6695 21.0428C16.1127 20.8094 16.3135 20.4357 16.3696 19.9196V19.9207ZM13.3704 22.8268C13.3401 22.7213 13.3379 22.4902 13.2212 22.3612C12.7847 21.8798 12.3516 21.376 11.8366 20.9889C11.3743 20.6411 10.7145 20.8262 10.3308 21.2717C9.94706 21.7171 9.92911 22.3791 10.3039 22.8178C10.6386 23.2104 11.0069 23.5731 11.4046 23.9017C11.7928 24.2215 12.2596 24.2316 12.7039 24.0016C13.1482 23.7716 13.3491 23.4013 13.3704 22.8257V22.8268ZM19.5573 8.52191L19.4811 8.71153C19.9299 10.0266 20.8881 10.8804 21.963 11.529C22.7148 10.7783 23.4217 10.0703 24.1454 9.34773L19.5573 8.52191Z" fill="white"/>
<path d="M7.67822 1.02218C7.90263 0.758496 8.04962 0.440958 8.28637 0.348951C8.52312 0.256943 8.87544 0.323143 9.13912 0.421883C9.34333 0.498182 9.49256 0.7282 9.65975 0.895384C10.511 1.7429 11.3611 2.59116 12.2101 3.44017C12.641 3.8744 12.6792 4.37371 12.3224 4.73725C11.9655 5.1008 11.4427 5.06713 10.9972 4.62505C10.0457 3.68141 9.08975 2.7389 8.15621 1.77955C7.97781 1.58993 7.87009 1.32962 7.67822 1.02218Z" fill="white"/>
<path d="M35.9279 0.235626C36.4283 0.235626 36.6931 0.407299 36.8323 0.730447C36.9091 0.889932 36.9322 1.06998 36.8982 1.2437C36.8643 1.41741 36.775 1.57548 36.6438 1.69428C36.0132 2.33048 35.3781 2.96219 34.7442 3.60175C34.3784 3.96754 34.0171 4.34006 33.6434 4.69799C33.2507 5.07387 32.7458 5.0907 32.4092 4.75521C32.0726 4.41972 32.0636 3.90246 32.4406 3.52096C33.4325 2.51487 34.4337 1.517 35.4443 0.527358C35.6025 0.366906 35.8348 0.289484 35.9279 0.235626Z" fill="white"/>
<path d="M23.1972 2.73104C23.1972 3.33245 23.2028 3.93274 23.1972 4.53415C23.1894 5.09518 22.8673 5.44413 22.377 5.45535C21.8867 5.46657 21.5175 5.09293 21.5142 4.52967C21.5067 3.32759 21.5067 2.12551 21.5142 0.923426C21.5142 0.362405 21.8867 -0.0134804 22.3815 -1.59258e-05C22.8763 0.0134486 23.1905 0.375869 23.1972 0.926792C23.2028 1.52821 23.1972 2.12626 23.1972 2.73104Z" fill="white"/>
<path d="M6.82666 37.8072C6.71463 37.811 6.60299 37.792 6.49851 37.7514C6.39403 37.7108 6.29888 37.6494 6.21883 37.5709C6.13879 37.4924 6.07551 37.3985 6.03283 37.2949C5.99015 37.1912 5.96896 37.08 5.97054 36.9679C5.97494 36.749 6.06273 36.54 6.216 36.3836C6.36926 36.2272 6.57645 36.1352 6.79524 36.1264C7.02143 36.1267 7.23834 36.2163 7.3987 36.3759C7.55906 36.5354 7.64988 36.7518 7.65136 36.978C7.65195 37.0867 7.63106 37.1944 7.58988 37.295C7.5487 37.3956 7.48804 37.487 7.4114 37.5641C7.33476 37.6411 7.24365 37.7023 7.1433 37.744C7.04295 37.7857 6.93534 37.8072 6.82666 37.8072Z" fill="white"/>
<path d="M29.7197 29.5725C29.6112 29.5762 29.5029 29.5584 29.4013 29.5201C29.2996 29.4818 29.2066 29.4237 29.1275 29.3492C29.0484 29.2747 28.9849 29.1853 28.9406 29.0861C28.8962 28.9869 28.872 28.88 28.8692 28.7714C28.8643 28.6592 28.8818 28.5471 28.9207 28.4418C28.9596 28.3364 29.0192 28.2399 29.0959 28.1578C29.1726 28.0758 29.2649 28.0099 29.3674 27.964C29.4699 27.9181 29.5805 27.8931 29.6928 27.8906C29.9193 27.8914 30.1364 27.9813 30.2972 28.1409C30.458 28.3004 30.5496 28.5168 30.5523 28.7433C30.548 28.9625 30.4587 29.1714 30.3035 29.326C30.1482 29.4807 29.9389 29.5691 29.7197 29.5725Z" fill="white"/>
</svg>
