<svg width="43" height="42" viewBox="0 0 43 42" fill="none" xmlns="http://www.w3.org/2000/svg">
<path d="M0.00111961 11.4317C0.0739344 11.1079 0.134427 10.7808 0.225165 10.4604C0.590871 9.05789 1.40665 7.81411 2.54734 6.91989C3.68803 6.02567 5.09062 5.53042 6.53989 5.51013C7.39238 5.49108 8.24376 5.50117 9.09625 5.51013C9.70677 5.51013 10.0776 5.8462 10.0708 6.3615C10.0641 6.87681 9.71125 7.17255 9.11305 7.18263C8.10485 7.20055 7.09664 7.15014 6.09852 7.23528C3.65418 7.44588 1.70835 9.56535 1.68594 12.0153C1.67362 13.2845 1.61537 14.5683 1.7778 15.8241C2.10043 18.3098 4.47307 20.1235 6.98126 19.9364C7.05141 19.919 7.11998 19.8958 7.18626 19.867C6.90956 19.6071 6.66311 19.3909 6.43347 19.1579C6.02906 18.7467 5.99658 18.2449 6.33713 17.8942C6.67768 17.5436 7.18738 17.5582 7.59738 17.957C8.32404 18.6717 9.04472 19.3927 9.75942 20.1201C10.1941 20.5615 10.1941 21.0025 9.75942 21.4431C9.04472 22.1705 8.32366 22.8912 7.59626 23.6052C7.18514 24.0107 6.68552 24.0264 6.33489 23.6668C5.99882 23.3307 6.02682 22.8221 6.40658 22.4345C6.63959 22.1959 6.895 21.9797 7.14145 21.7546L7.1 21.6425L6.35057 21.6089C4.9306 21.5517 3.56682 21.0387 2.46116 20.1459C1.3555 19.2531 0.566753 18.028 0.211723 16.6519C0.131067 16.3427 0.0705743 16.0291 0 15.7176L0.00111961 11.4317Z" fill="white"/>
<path d="M21.4289 26.8718C19.557 26.8718 17.6851 26.8718 15.8132 26.8718C13.4607 26.8662 11.8398 25.2485 11.8331 22.8961C11.8331 21.4006 11.8275 19.9062 11.8331 18.4151C11.842 16.1019 13.4854 14.4686 15.8065 14.4663C19.5652 14.4663 23.3232 14.4663 27.0805 14.4663C29.3837 14.4663 31.0203 16.0952 31.0293 18.3871C31.036 19.9107 31.036 21.4334 31.0293 22.9554C31.0203 25.2385 29.4038 26.8639 27.1264 26.8762C25.2276 26.8774 23.3277 26.8718 21.4289 26.8718ZM21.4368 25.1914C23.3232 25.1914 25.2097 25.1914 27.0962 25.1914C28.4774 25.1914 29.3501 24.3176 29.3534 22.942C29.3534 21.4465 29.3534 19.9521 29.3534 18.4611C29.3534 17.0048 28.4819 16.1411 27.0312 16.1411H15.839C14.395 16.1411 13.5134 17.0205 13.51 18.4622C13.51 19.9297 13.51 21.3968 13.51 22.8636C13.51 24.34 14.3737 25.1948 15.8625 25.1959C17.7206 25.1966 19.5787 25.1963 21.4368 25.1948V25.1914Z" fill="white"/>
<path d="M21.4278 41.2992C19.5559 41.2992 17.684 41.2992 15.8121 41.2992C13.4596 41.2924 11.8397 39.6771 11.833 37.3235C11.833 35.8425 11.833 34.3616 11.833 32.8807C11.8397 30.5282 13.4708 28.8926 15.8087 28.8904C19.5659 28.8904 23.3236 28.8904 27.0815 28.8904C29.3847 28.8904 31.0214 30.5203 31.0304 32.8112C31.0371 34.3347 31.0371 35.8575 31.0304 37.3795C31.0214 39.6625 29.4083 41.2846 27.1275 41.3003C25.2276 41.3059 23.3277 41.2992 21.4278 41.2992ZM21.4054 39.6188C23.3097 39.6188 25.2063 39.6188 27.1073 39.6188C28.4841 39.6188 29.3478 38.7428 29.3545 37.3616C29.3545 35.8515 29.3545 34.3422 29.3545 32.8336C29.3545 31.4468 28.4583 30.5663 27.0636 30.5651C23.3056 30.5651 19.5465 30.5651 15.7863 30.5651C14.4039 30.5651 13.5145 31.4613 13.5111 32.856C13.5066 34.337 13.5066 35.8179 13.5111 37.2988C13.5111 38.7551 14.3759 39.6177 15.8311 39.6199C17.6884 39.6244 19.5465 39.6252 21.4054 39.6222V39.6188Z" fill="white"/>
<path d="M21.4278 12.4231C19.5689 12.4231 17.7101 12.4231 15.8513 12.4231C13.4775 12.4231 11.8397 10.7931 11.833 8.43056C11.833 6.94888 11.833 5.46719 11.833 3.9855C11.8397 1.6487 13.4506 0.0277342 15.7762 0.0142915C16.4483 0.0142915 17.1205 0.0075701 17.7926 0.0142915C18.3191 0.0210128 18.6742 0.343639 18.6944 0.809654C18.7146 1.27567 18.3438 1.66775 17.8128 1.67895C17.1149 1.69799 16.4159 1.67895 15.7168 1.68679C14.4039 1.69911 13.519 2.58297 13.5122 3.91044C13.5055 5.4474 13.5055 6.98435 13.5122 8.5213C13.519 9.82861 14.4263 10.7371 15.7336 10.7394C19.5349 10.7453 23.3359 10.7453 27.1364 10.7394C28.4505 10.7394 29.3478 9.83533 29.3534 8.52466C29.3601 6.97277 29.3601 5.42163 29.3534 3.87124C29.3467 2.57737 28.4572 1.69911 27.16 1.68679C26.5315 1.68007 25.9008 1.70472 25.2735 1.67783C24.5476 1.64534 24.1533 0.922796 24.5633 0.376125C24.6843 0.213692 24.9173 0.0400562 25.1032 0.0400562C26.0229 0.0154112 26.9594 -0.0529225 27.8635 0.0770239C29.7197 0.344758 31.0102 1.91308 31.0281 3.79282C31.0423 5.38578 31.0423 6.97912 31.0281 8.57283C31.0124 10.7629 29.3702 12.404 27.17 12.4186C25.2567 12.4331 23.3422 12.4231 21.4278 12.4231Z" fill="white"/>
<path d="M35.7767 36.061C36.0321 36.2962 36.2998 36.5203 36.5418 36.769C36.9148 37.1532 36.9238 37.6651 36.5832 38.0012C36.2427 38.3373 35.7487 38.3272 35.351 37.9374C34.6131 37.2152 33.8828 36.4841 33.1598 35.744C32.7498 35.3261 32.7498 34.8747 33.1654 34.4501C33.8876 33.7107 34.6187 32.9796 35.3588 32.2567C35.7476 31.8758 36.255 31.8657 36.5911 32.204C36.9272 32.5423 36.916 33.0464 36.5418 33.4363C36.3043 33.6839 36.0411 33.909 35.8204 34.1846C37.3764 34.3538 38.6982 33.8922 39.7893 32.8179C40.256 32.3721 40.6267 31.8355 40.8784 31.2412C41.1302 30.6469 41.2578 30.0074 41.2535 29.362C41.2591 28.1298 41.3196 26.8975 41.1683 25.681C40.8737 23.3117 38.7845 21.5484 36.3838 21.5081C35.5179 21.4935 34.6509 21.5081 33.7838 21.5025C33.2237 21.5025 32.8753 21.1776 32.8686 20.6859C32.8625 20.5731 32.8801 20.4604 32.9204 20.3549C32.9606 20.2494 33.0225 20.1536 33.1021 20.0735C33.1817 19.9935 33.2773 19.931 33.3825 19.8903C33.4878 19.8495 33.6005 19.8312 33.7132 19.8367C35.0373 19.8636 36.385 19.7874 37.68 20.0092C40.653 20.5178 42.889 23.2579 42.9282 26.2747C42.945 27.5865 42.9943 28.9117 42.8476 30.2089C42.4857 33.4083 39.7266 35.8481 36.5138 35.9221C36.2898 35.9221 36.0758 35.9221 35.8562 35.9221L35.7767 36.061Z" fill="white"/>
<path d="M35.7791 6.7435C36.0323 6.97763 36.2966 7.20055 36.5341 7.44924C36.9072 7.84132 36.9094 8.34543 36.5633 8.6815C36.2171 9.01756 35.7376 9.00412 35.3635 8.63893C34.604 7.89958 33.8538 7.15014 33.113 6.39063C32.7422 6.00863 32.7444 5.54038 33.113 5.15838C33.853 4.39886 34.6032 3.64906 35.3635 2.90896C35.7399 2.54153 36.2193 2.54265 36.5599 2.87199C36.9004 3.20134 36.9038 3.70992 36.5308 4.10424C36.2922 4.35518 36.0278 4.58146 35.7757 4.81895L35.8228 4.94218H36.2485C37.6017 4.94218 38.9549 4.94218 40.3093 4.94218C40.9579 4.94218 41.3522 5.37906 41.2469 5.93582C41.1674 6.35702 40.8224 6.60795 40.2768 6.60795C39.2025 6.6158 38.1282 6.60795 37.0539 6.60795H35.8485L35.7791 6.7435Z" fill="white"/>
<path d="M4.55154 36.0823C4.81255 36.3063 5.08813 36.5102 5.3301 36.7544C5.71658 37.1375 5.73898 37.6439 5.413 37.9867C5.06909 38.3474 4.55714 38.3339 4.14938 37.9329C3.42272 37.2174 2.7013 36.4964 1.9851 35.7697C1.55157 35.3284 1.54821 34.8881 1.9851 34.4467C2.70877 33.7074 3.4399 32.9763 4.17851 32.2533C4.56498 31.8758 5.07469 31.8736 5.41076 32.2186C5.74682 32.5636 5.72778 33.0453 5.37267 33.4206C5.13294 33.6738 4.86184 33.8967 4.60531 34.1331L4.64452 34.2608H5.06236C6.41784 34.2608 7.77332 34.2608 9.12767 34.2608C9.6721 34.2608 10.0104 34.5218 10.0776 34.9587C10.1605 35.5087 9.80093 35.9266 9.20609 35.931C7.83717 35.9411 6.46825 35.931 5.09821 35.931H4.65684L4.55154 36.0823Z" fill="white"/>
<path d="M21.5174 5.3757C22.9994 5.3757 24.4804 5.3757 25.9613 5.3757C26.5842 5.3757 26.9695 5.686 26.9774 6.18787C26.9852 6.68973 26.5909 7.04932 25.9602 7.05044C22.9729 7.05044 19.9827 7.05044 16.9894 7.05044C16.3767 7.05044 16.0059 6.7211 16.0059 6.20691C16.0059 5.69273 16.3587 5.37794 16.9905 5.3757C18.4995 5.3757 20.0084 5.3757 21.5174 5.3757Z" fill="white"/>
<path d="M21.6035 0.0176513C21.7115 0.017192 21.8185 0.0382717 21.9182 0.0796556C22.018 0.121039 22.1084 0.181897 22.1844 0.258669C22.2603 0.335441 22.3202 0.426584 22.3605 0.526769C22.4008 0.626954 22.4207 0.734168 22.419 0.842139C22.4217 0.952972 22.4021 1.06321 22.3613 1.16629C22.3204 1.26936 22.2593 1.36316 22.1814 1.44208C22.1035 1.521 22.0106 1.58343 21.908 1.62564C21.8055 1.66786 21.6956 1.68899 21.5847 1.68779C21.4738 1.68659 21.3644 1.66307 21.2628 1.61863C21.1612 1.5742 21.0696 1.50977 20.9935 1.42917C20.9174 1.34858 20.8583 1.25348 20.8197 1.14954C20.7811 1.04561 20.7638 0.934964 20.7689 0.824215C20.7699 0.716209 20.7924 0.609483 20.8351 0.510248C20.8777 0.411014 20.9397 0.321253 21.0174 0.246192C21.095 0.171132 21.1868 0.112271 21.2875 0.0730354C21.3881 0.0337995 21.4955 0.0149723 21.6035 0.0176513Z" fill="white"/>
<path d="M19.6231 21.507C18.7269 21.507 17.8307 21.507 16.9413 21.507C16.3531 21.507 16.0036 21.1821 16.0059 20.6702C16.0081 20.1582 16.3699 19.8367 16.9525 19.8345C18.7538 19.8293 20.5551 19.8293 22.3564 19.8345C22.9166 19.8345 23.3064 20.1941 23.303 20.6803C23.2997 21.1664 22.9222 21.5036 22.3452 21.507C21.4379 21.507 20.5305 21.507 19.6231 21.507Z" fill="white"/>
<path d="M25.3184 20.6433C25.3194 20.5348 25.3421 20.4277 25.385 20.3281C25.4279 20.2285 25.4902 20.1385 25.5684 20.0632C25.6465 19.988 25.7388 19.9292 25.84 19.8901C25.9412 19.851 26.0491 19.8325 26.1575 19.8356C26.2665 19.8392 26.3737 19.8642 26.4731 19.9093C26.5724 19.9543 26.6619 20.0185 26.7364 20.0981C26.8109 20.1778 26.8691 20.2713 26.9075 20.3734C26.9458 20.4755 26.9637 20.5841 26.9601 20.6931C26.9565 20.8021 26.9315 20.9094 26.8864 21.0087C26.8414 21.108 26.7772 21.1975 26.6976 21.2721C26.618 21.3466 26.5244 21.4047 26.4224 21.4431C26.3203 21.4815 26.2116 21.4994 26.1026 21.4958C25.995 21.4916 25.8894 21.4662 25.7916 21.421C25.6939 21.3759 25.6061 21.3118 25.5332 21.2326C25.4604 21.1534 25.4039 21.0605 25.367 20.9594C25.3301 20.8583 25.3136 20.7508 25.3184 20.6433Z" fill="white"/>
<path d="M21.5095 34.2977C23.0319 34.2977 24.5554 34.291 26.0778 34.2977C26.6211 34.2977 26.9863 34.6652 26.974 35.1413C26.9617 35.6174 26.6122 35.9344 26.0902 35.9658C26.0061 35.9714 25.9221 35.9658 25.8381 35.9658H17.1653C17.0122 35.9708 16.8589 35.963 16.7071 35.9422C16.5038 35.9159 16.3181 35.8131 16.1878 35.6547C16.0576 35.4964 15.9925 35.2944 16.0059 35.0897C16.0058 34.8845 16.0863 34.6873 16.23 34.5407C16.3737 34.3941 16.5691 34.3097 16.7743 34.3056C17.4465 34.2798 18.1186 34.291 18.7908 34.2899C19.6981 34.2899 20.6063 34.2899 21.5151 34.2899L21.5095 34.2977Z" fill="white"/>
</svg>
