<?xml version="1.0" encoding="UTF-8"?>
<svg id="Layer_1" xmlns="http://www.w3.org/2000/svg" xmlns:xlink="http://www.w3.org/1999/xlink" version="1.1" viewBox="0 0 32 20">
  <!-- Generator: Adobe Illustrator 29.0.1, SVG Export Plug-In . SVG Version: 2.1.0 Build 192)  -->
  <defs>
    <style>
      .st0 {
        fill: url(#linear-gradient2);
      }

      .st1 {
        fill: url(#linear-gradient1);
      }

      .st2 {
        fill-opacity: .2;
      }

      .st3 {
        fill: url(#linear-gradient);
      }
    </style>
    <linearGradient id="linear-gradient" x1="5.3" y1="28.4" x2="26.7" y2="11.2" gradientTransform="translate(0 22) scale(1 -1)" gradientUnits="userSpaceOnUse">
      <stop offset="0" stop-color="#8427d2"/>
      <stop offset=".5" stop-color="#4061e2"/>
      <stop offset="1" stop-color="#2ea1f9"/>
    </linearGradient>
    <linearGradient id="linear-gradient1" x1="5.3" y1="20.6" x2="26.7" y2="3.4" gradientTransform="translate(0 22) scale(1 -1)" gradientUnits="userSpaceOnUse">
      <stop offset="0" stop-color="#8427d2"/>
      <stop offset=".5" stop-color="#4061e2"/>
      <stop offset="1" stop-color="#2ea1f9"/>
    </linearGradient>
    <linearGradient id="linear-gradient2" x1="5.3" y1="12.8" x2="26.7" y2="-4.4" gradientTransform="translate(0 22) scale(1 -1)" gradientUnits="userSpaceOnUse">
      <stop offset="0" stop-color="#8427d2"/>
      <stop offset=".5" stop-color="#4061e2"/>
      <stop offset="1" stop-color="#2ea1f9"/>
    </linearGradient>
  </defs>
  <path class="st3" d="M2,.2h28c1.1,0,2,.9,2,2h0c0,1.1-.9,2-2,2H2c-1.1,0-2-.9-2-2h0C0,1.1.9.2,2,.2Z"/>
  <path class="st2" d="M2,.2h28c1.1,0,2,.9,2,2h0c0,1.1-.9,2-2,2H2c-1.1,0-2-.9-2-2h0C0,1.1.9.2,2,.2Z"/>
  <path class="st1" d="M2,8h28c1.1,0,2,.9,2,2h0c0,1.1-.9,2-2,2H2c-1.1,0-2-.9-2-2h0c0-1.1.9-2,2-2Z"/>
  <path class="st2" d="M2,8h28c1.1,0,2,.9,2,2h0c0,1.1-.9,2-2,2H2c-1.1,0-2-.9-2-2h0c0-1.1.9-2,2-2Z"/>
  <path class="st0" d="M2,15.8h28c1.1,0,2,.9,2,2h0c0,1.1-.9,2-2,2H2c-1.1,0-2-.9-2-2h0c0-1.1.9-2,2-2Z"/>
  <path class="st2" d="M2,15.8h28c1.1,0,2,.9,2,2h0c0,1.1-.9,2-2,2H2c-1.1,0-2-.9-2-2h0c0-1.1.9-2,2-2Z"/>
</svg>